<?xml version="1.0" encoding="utf-8" standalone="no"?>
<!DOCTYPE svg PUBLIC "-//W3C//DTD SVG 1.1//EN" "http://www.w3.org/Graphics/SVG/1.1/DTD/svg11.dtd">
<svg width="3000px" height="3000px" version="1.1" xmlns="http://www.w3.org/2000/svg" xmlns:xlink="http://www.w3.org/1999/xlink">
<g id="bg">
<rect x="0" y="0" width="3000px" height="3000px" style="fill:rgb(255,255,255);"/>
</g>
<g id="ideograms">
<path d="M 1500.00,150.00 A1350.00,1350.00 0.00 0,1 2383.81,479.52" style="stroke-linecap:round;fill:none;" />
<text x="1980.4" y="211.6" font-size="78.0px" font-family="CMUBright-Bold" style="text-anchor:middle;fill:rgb(0,0,0);" transform="rotate(380.4,1980.4,211.6)" >14</text>
<path d="M 1500.00,150.00 A1350.00,1350.00 0.00 0,1 2383.81,479.52" style="stroke-linecap:round;fill:none;" />
<path d="M 2413.80,506.28 A1350.00,1350.00 0.00 0,1 2835.72,1304.19" style="stroke-linecap:round;fill:none;" />
<text x="2715.5" y="857.2" font-size="78.0px" font-family="CMUBright-Bold" style="text-anchor:middle;fill:rgb(0,0,0);" transform="rotate(422.1,2715.5,857.2)" >15</text>
<path d="M 2413.80,506.28 A1350.00,1350.00 0.00 0,1 2835.72,1304.19" style="stroke-linecap:round;fill:none;" />
<path d="M 2840.96,1344.05 A1350.00,1350.00 0.00 0,1 2694.33,2129.35" style="stroke-linecap:round;fill:none;" />
<text x="2910.6" y="1763.4" font-size="78.0px" font-family="CMUBright-Bold" style="text-anchor:middle;fill:rgb(0,0,0);" transform="rotate(-79.4,2910.6,1763.4)" >16</text>
<path d="M 2840.96,1344.05 A1350.00,1350.00 0.00 0,1 2694.33,2129.35" style="stroke-linecap:round;fill:none;" />
<path d="M 2675.06,2164.63 A1350.00,1350.00 0.00 0,1 2166.32,2674.10" style="stroke-linecap:round;fill:none;" />
<text x="2514.7" y="2513.3" font-size="78.0px" font-family="CMUBright-Bold" style="text-anchor:middle;fill:rgb(0,0,0);" transform="rotate(-45.0,2514.7,2513.3)" >17</text>
<path d="M 2675.06,2164.63 A1350.00,1350.00 0.00 0,1 2166.32,2674.10" style="stroke-linecap:round;fill:none;" />
<path d="M 2131.07,2693.42 A1350.00,1350.00 0.00 0,1 1455.85,2849.28" style="stroke-linecap:round;fill:none;" />
<text x="1822.7" y="2898.2" font-size="78.0px" font-family="CMUBright-Bold" style="text-anchor:middle;fill:rgb(0,0,0);" transform="rotate(-13.0,1822.7,2898.2)" >18</text>
<path d="M 2131.07,2693.42 A1350.00,1350.00 0.00 0,1 1455.85,2849.28" style="stroke-linecap:round;fill:none;" />
<path d="M 1415.70,2847.37 A1350.00,1350.00 0.00 0,1 905.97,2712.28" style="stroke-linecap:round;fill:none;" />
<text x="1132.4" y="2887.1" font-size="78.0px" font-family="CMUBright-Bold" style="text-anchor:middle;fill:rgb(0,0,0);" transform="rotate(14.8,1132.4,2887.1)" >19</text>
<path d="M 1415.70,2847.37 A1350.00,1350.00 0.00 0,1 905.97,2712.28" style="stroke-linecap:round;fill:none;" />
<path d="M 870.14,2694.06 A1350.00,1350.00 0.00 0,1 438.79,2334.46" style="stroke-linecap:round;fill:none;" />
<text x="581.1" y="2602.2" font-size="78.0px" font-family="CMUBright-Bold" style="text-anchor:middle;fill:rgb(0,0,0);" transform="rotate(39.8,581.1,2602.2)" >20</text>
<path d="M 870.14,2694.06 A1350.00,1350.00 0.00 0,1 438.79,2334.46" style="stroke-linecap:round;fill:none;" />
<path d="M 414.41,2302.49 A1350.00,1350.00 0.00 0,1 217.08,1920.26" style="stroke-linecap:round;fill:none;" />
<text x="226.7" y="2157.4" font-size="78.0px" font-family="CMUBright-Bold" style="text-anchor:middle;fill:rgb(0,0,0);" transform="rotate(62.7,226.7,2157.4)" >21</text>
<path d="M 414.41,2302.49 A1350.00,1350.00 0.00 0,1 217.08,1920.26" style="stroke-linecap:round;fill:none;" />
<path d="M 205.14,1881.87 A1350.00,1350.00 0.00 0,1 151.99,1426.69" style="stroke-linecap:round;fill:none;" />
<text x="76.7" y="1666.2" font-size="78.0px" font-family="CMUBright-Bold" style="text-anchor:middle;fill:rgb(0,0,0);" transform="rotate(83.3,76.7,1666.2)" >22</text>
<path d="M 205.14,1881.87 A1350.00,1350.00 0.00 0,1 151.99,1426.69" style="stroke-linecap:round;fill:none;" />
<path d="M 154.77,1386.59 A1350.00,1350.00 0.00 0,1 907.55,286.94" style="stroke-linecap:round;fill:none;" />
<text x="365.4" y="723.3" font-size="78.0px" font-family="CMUBright-Bold" style="text-anchor:middle;fill:rgb(0,0,0);" transform="rotate(-55.6,365.4,723.3)" >x</text>
<path d="M 154.77,1386.59 A1350.00,1350.00 0.00 0,1 907.55,286.94" style="stroke-linecap:round;fill:none;" />
<path d="M 943.93,269.84 A1350.00,1350.00 0.00 0,1 1459.81,150.60" style="stroke-linecap:round;fill:none;" />
<text x="1190.3" y="160.3" font-size="78.0px" font-family="CMUBright-Bold" style="text-anchor:middle;fill:rgb(0,0,0);" transform="rotate(-13.0,1190.3,160.3)" >y</text>
<path d="M 943.93,269.84 A1350.00,1350.00 0.00 0,1 1459.81,150.60" style="stroke-linecap:round;fill:none;" />
</g>
<g id="plot0">
<g id="plot0-axis">
<path d="M1500.000,217.500 A1282.500,1282.500 40.000 0,1 2339.616,530.541 L2383.807,479.517 A1350.000,1350.000 0.000 0,0 1500.000,150.000 Z" style="stroke-linecap:round;fill:rgb(217,217,217);" />
<path d="M2368.109,555.969 A1282.500,1282.500 40.000 0,1 2768.938,1313.982 L2835.724,1304.191 A1350.000,1350.000 0.000 0,0 2413.799,506.284 Z" style="stroke-linecap:round;fill:rgb(217,217,217);" />
<path d="M2773.914,1351.845 A1282.500,1282.500 40.000 0,1 2634.611,2097.883 L2694.327,2129.350 A1350.000,1350.000 0.000 0,0 2840.962,1344.048 Z" style="stroke-linecap:round;fill:rgb(217,217,217);" />
<path d="M2616.307,2131.399 A1282.500,1282.500 40.000 0,1 2133.005,2615.397 L2166.321,2674.102 A1350.000,1350.000 0.000 0,0 2675.060,2164.631 Z" style="stroke-linecap:round;fill:rgb(217,217,217);" />
<path d="M2099.515,2633.750 A1282.500,1282.500 40.000 0,1 1458.059,2781.814 L1455.851,2849.278 A1350.000,1350.000 0.000 0,0 2131.068,2693.421 Z" style="stroke-linecap:round;fill:rgb(217,217,217);" />
<path d="M1419.913,2779.997 A1282.500,1282.500 40.000 0,1 935.670,2651.667 L905.968,2712.281 A1350.000,1350.000 0.000 0,0 1415.698,2847.365 Z" style="stroke-linecap:round;fill:rgb(217,217,217);" />
<path d="M901.630,2634.354 A1282.500,1282.500 40.000 0,1 491.847,2292.738 L438.786,2334.461 A1350.000,1350.000 0.000 0,0 870.137,2694.057 Z" style="stroke-linecap:round;fill:rgb(217,217,217);" />
<path d="M468.691,2262.370 A1282.500,1282.500 40.000 0,1 281.226,1899.244 L217.080,1920.257 A1350.000,1350.000 0.000 0,0 414.411,2302.494 Z" style="stroke-linecap:round;fill:rgb(217,217,217);" />
<path d="M269.879,1862.780 A1282.500,1282.500 40.000 0,1 219.392,1430.355 L151.992,1426.689 A1350.000,1350.000 0.000 0,0 205.136,1881.873 Z" style="stroke-linecap:round;fill:rgb(217,217,217);" />
<path d="M222.034,1392.257 A1282.500,1282.500 40.000 0,1 937.172,347.598 L907.550,286.945 A1350.000,1350.000 0.000 0,0 154.772,1386.587 Z" style="stroke-linecap:round;fill:rgb(217,217,217);" />
<path d="M971.733,331.351 A1282.500,1282.500 40.000 0,1 1461.815,218.069 L1459.805,150.599 A1350.000,1350.000 0.000 0,0 943.930,269.843 Z" style="stroke-linecap:round;fill:rgb(217,217,217);" />
</g>
<path d="M1662.431,227.828 A1282.500,1282.500 40.000 0,1 1708.833,234.617 L1719.824,168.018 A1350.000,1350.000 0.000 0,0 1670.979,160.871 Z" style="stroke-linecap:round;fill:rgb(239,59,44);" />
<path d="M1708.833,234.617 A1282.500,1282.500 40.000 0,1 1764.142,244.996 L1778.044,178.943 A1350.000,1350.000 0.000 0,0 1719.824,168.018 Z" style="stroke-linecap:round;fill:rgb(239,59,44);" />
<path d="M1764.142,244.996 A1282.500,1282.500 40.000 0,1 1865.780,270.768 L1885.031,206.072 A1350.000,1350.000 0.000 0,0 1778.044,178.943 Z" style="stroke-linecap:round;fill:rgb(239,59,44);" />
<path d="M 1885.03,206.07 L 1865.78,270.77 " style="stroke-linecap:round;fill:none;" />
<path d="M2480.131,672.867 A1282.500,1282.500 40.000 0,1 2489.417,683.998 L2541.492,641.050 A1350.000,1350.000 0.000 0,0 2531.717,629.334 Z" style="stroke-linecap:round;fill:rgb(239,59,44);" />
<path d="M2489.417,683.998 A1282.500,1282.500 40.000 0,1 2585.252,816.601 L2642.371,780.633 A1350.000,1350.000 0.000 0,0 2541.492,641.050 Z" style="stroke-linecap:round;fill:rgb(239,59,44);" />
<path d="M2585.252,816.601 A1282.500,1282.500 40.000 0,1 2664.142,961.875 L2725.413,933.552 A1350.000,1350.000 0.000 0,0 2642.371,780.633 Z" style="stroke-linecap:round;fill:rgb(239,59,44);" />
<path d="M2664.142,961.875 A1282.500,1282.500 40.000 0,1 2677.872,992.630 L2739.865,965.927 A1350.000,1350.000 0.000 0,0 2725.413,933.552 Z" style="stroke-linecap:round;fill:rgb(239,59,44);" />
<path d="M2677.872,992.630 A1282.500,1282.500 40.000 0,1 2691.106,1024.528 L2753.795,999.503 A1350.000,1350.000 0.000 0,0 2739.865,965.927 Z" style="stroke-linecap:round;fill:rgb(239,59,44);" />
<path d="M 2691.11,1024.53 L 2753.80,999.50 " style="stroke-linecap:round;fill:rgb(239,59,44);" />
<path d="M2691.106,1024.528 A1282.500,1282.500 40.000 0,1 2691.737,1026.112 L2754.460,1001.171 A1350.000,1350.000 0.000 0,0 2753.795,999.503 Z" style="stroke-linecap:round;fill:rgb(239,59,44);" />
<path d="M 2754.46,1001.17 L 2691.74,1026.11 " style="stroke-linecap:round;fill:none;" />
<path d="M2779.264,1591.049 A1282.500,1282.500 40.000 0,1 2774.136,1646.233 L2841.196,1653.930 A1350.000,1350.000 0.000 0,0 2846.594,1595.841 Z" style="stroke-linecap:round;fill:rgb(239,59,44);" />
<path d="M1302.127,2767.144 A1282.500,1282.500 40.000 0,1 1301.285,2767.012 L1290.826,2833.696 A1350.000,1350.000 0.000 0,0 1291.713,2833.835 Z" style="stroke-linecap:round;fill:rgb(239,59,44);" />
<path d="M718.130,2516.605 A1282.500,1282.500 40.000 0,1 705.350,2506.647 L663.526,2559.628 A1350.000,1350.000 0.000 0,0 676.979,2570.110 Z" style="stroke-linecap:round;fill:rgb(239,59,44);" />
<path d="M705.350,2506.647 A1282.500,1282.500 40.000 0,1 699.008,2501.607 L656.850,2554.324 A1350.000,1350.000 0.000 0,0 663.526,2559.628 Z" style="stroke-linecap:round;fill:rgb(239,59,44);" />
<path d="M699.008,2501.607 A1282.500,1282.500 40.000 0,1 674.939,2481.876 L631.514,2533.553 A1350.000,1350.000 0.000 0,0 656.850,2554.324 Z" style="stroke-linecap:round;fill:rgb(239,59,44);" />
<path d="M 631.51,2533.55 L 674.94,2481.88 " style="stroke-linecap:round;fill:none;" />
<path d="M435.288,2214.979 A1282.500,1282.500 40.000 0,1 416.196,2185.693 L359.153,2221.782 A1350.000,1350.000 0.000 0,0 379.251,2252.609 Z" style="stroke-linecap:round;fill:rgb(239,59,44);" />
<path d="M240.349,1741.010 A1282.500,1282.500 40.000 0,1 235.507,1714.157 L168.955,1725.429 A1350.000,1350.000 0.000 0,0 174.052,1753.695 Z" style="stroke-linecap:round;fill:rgb(239,59,44);" />
</g>
<g id="plot1">
<g id="plot1-axis">
<path d="M1500.000,285.000 A1215.000,1215.000 40.000 0,1 2295.426,581.565 L2339.616,530.541 A1282.500,1282.500 0.000 0,0 1500.000,217.500 Z" style="stroke-linecap:round;fill:rgb(217,217,217);" />
<path d="M2322.419,605.655 A1215.000,1215.000 40.000 0,1 2702.152,1323.772 L2768.938,1313.982 A1282.500,1282.500 0.000 0,0 2368.109,555.969 Z" style="stroke-linecap:round;fill:rgb(217,217,217);" />
<path d="M2706.866,1359.643 A1215.000,1215.000 40.000 0,1 2574.895,2066.415 L2634.611,2097.883 A1282.500,1282.500 0.000 0,0 2773.914,1351.845 Z" style="stroke-linecap:round;fill:rgb(217,217,217);" />
<path d="M2557.554,2098.168 A1215.000,1215.000 40.000 0,1 2099.689,2556.692 L2133.005,2615.397 A1282.500,1282.500 0.000 0,0 2616.307,2131.399 Z" style="stroke-linecap:round;fill:rgb(217,217,217);" />
<path d="M2067.962,2574.078 A1215.000,1215.000 40.000 0,1 1460.266,2714.350 L1458.059,2781.814 A1282.500,1282.500 0.000 0,0 2099.515,2633.750 Z" style="stroke-linecap:round;fill:rgb(217,217,217);" />
<path d="M1424.128,2712.629 A1215.000,1215.000 40.000 0,1 965.371,2591.053 L935.670,2651.667 A1282.500,1282.500 0.000 0,0 1419.913,2779.997 Z" style="stroke-linecap:round;fill:rgb(217,217,217);" />
<path d="M933.124,2574.652 A1215.000,1215.000 40.000 0,1 544.907,2251.015 L491.847,2292.738 A1282.500,1282.500 0.000 0,0 901.630,2634.354 Z" style="stroke-linecap:round;fill:rgb(217,217,217);" />
<path d="M522.970,2222.245 A1215.000,1215.000 40.000 0,1 345.372,1878.231 L281.226,1899.244 A1282.500,1282.500 0.000 0,0 468.691,2262.370 Z" style="stroke-linecap:round;fill:rgb(217,217,217);" />
<path d="M334.622,1843.686 A1215.000,1215.000 40.000 0,1 286.793,1434.020 L219.392,1430.355 A1282.500,1282.500 0.000 0,0 269.879,1862.780 Z" style="stroke-linecap:round;fill:rgb(217,217,217);" />
<path d="M289.295,1397.928 A1215.000,1215.000 40.000 0,1 966.795,408.250 L937.172,347.598 A1282.500,1282.500 0.000 0,0 222.034,1392.257 Z" style="stroke-linecap:round;fill:rgb(217,217,217);" />
<path d="M999.537,392.859 A1215.000,1215.000 40.000 0,1 1463.825,285.539 L1461.815,218.069 A1282.500,1282.500 0.000 0,0 971.733,331.351 Z" style="stroke-linecap:round;fill:rgb(217,217,217);" />
</g>
<path d="M1653.882,294.784 A1215.000,1215.000 40.000 0,1 1697.842,301.216 L1708.833,234.617 A1282.500,1282.500 0.000 0,0 1662.431,227.828 Z" style="stroke-linecap:round;fill:rgb(66,146,198);" />
<path d="M2437.343,726.945 A1215.000,1215.000 40.000 0,1 2462.520,758.528 L2515.993,717.335 A1282.500,1282.500 0.000 0,0 2489.417,683.998 Z" style="stroke-linecap:round;fill:rgb(66,146,198);" />
<path d="M2711.934,1586.257 A1215.000,1215.000 40.000 0,1 2707.076,1638.537 L2774.136,1646.233 A1282.500,1282.500 0.000 0,0 2779.264,1591.049 Z" style="stroke-linecap:round;fill:rgb(66,146,198);" />
<path d="M2707.076,1638.537 A1215.000,1215.000 40.000 0,1 2705.127,1654.575 L2772.079,1663.163 A1282.500,1282.500 0.000 0,0 2774.136,1646.233 Z" style="stroke-linecap:round;fill:rgb(66,146,198);" />
<path d="M2705.127,1654.575 A1215.000,1215.000 40.000 0,1 2691.567,1737.471 L2757.765,1750.664 A1282.500,1282.500 0.000 0,0 2772.079,1663.163 Z" style="stroke-linecap:round;fill:rgb(66,146,198);" />
<path d="M2691.567,1737.471 A1215.000,1215.000 40.000 0,1 2682.646,1778.518 L2748.349,1793.992 A1282.500,1282.500 0.000 0,0 2757.765,1750.664 Z" style="stroke-linecap:round;fill:rgb(66,146,198);" />
<path d="M2682.646,1778.518 A1215.000,1215.000 40.000 0,1 2650.345,1891.065 L2714.253,1912.791 A1282.500,1282.500 0.000 0,0 2748.349,1793.992 Z" style="stroke-linecap:round;fill:rgb(66,146,198);" />
<path d="M 2650.34,1891.07 L 2714.25,1912.79 " style="stroke-linecap:round;fill:rgb(66,146,198);" />
<path d="M2650.345,1891.065 A1215.000,1215.000 40.000 0,1 2639.258,1922.275 L2702.550,1945.734 A1282.500,1282.500 0.000 0,0 2714.253,1912.791 Z" style="stroke-linecap:round;fill:rgb(66,146,198);" />
<path d="M 2639.26,1922.27 L 2702.55,1945.73 " style="stroke-linecap:round;fill:rgb(66,146,198);" />
<path d="M2639.258,1922.275 A1215.000,1215.000 40.000 0,1 2633.251,1938.140 L2696.210,1962.481 A1282.500,1282.500 0.000 0,0 2702.550,1945.734 Z" style="stroke-linecap:round;fill:rgb(66,146,198);" />
<path d="M 2633.25,1938.14 L 2696.21,1962.48 " style="stroke-linecap:round;fill:rgb(66,146,198);" />
<path d="M2633.251,1938.140 A1215.000,1215.000 40.000 0,1 2629.720,1947.167 L2692.482,1972.010 A1282.500,1282.500 0.000 0,0 2696.210,1962.481 Z" style="stroke-linecap:round;fill:rgb(66,146,198);" />
<path d="M 2629.72,1947.17 L 2692.48,1972.01 " style="stroke-linecap:round;fill:rgb(66,146,198);" />
<path d="M2629.720,1947.167 A1215.000,1215.000 40.000 0,1 2613.910,1985.211 L2675.794,2012.167 A1282.500,1282.500 0.000 0,0 2692.482,1972.010 Z" style="stroke-linecap:round;fill:rgb(66,146,198);" />
<path d="M 2613.91,1985.21 L 2675.79,2012.17 " style="stroke-linecap:round;fill:rgb(66,146,198);" />
<path d="M2613.910,1985.211 A1215.000,1215.000 40.000 0,1 2605.691,2003.658 L2667.119,2031.639 A1282.500,1282.500 0.000 0,0 2675.794,2012.167 Z" style="stroke-linecap:round;fill:rgb(66,146,198);" />
<path d="M 2605.69,2003.66 L 2667.12,2031.64 " style="stroke-linecap:round;fill:rgb(66,146,198);" />
<path d="M2605.691,2003.658 A1215.000,1215.000 40.000 0,1 2597.167,2021.967 L2658.121,2050.965 A1282.500,1282.500 0.000 0,0 2667.119,2031.639 Z" style="stroke-linecap:round;fill:rgb(66,146,198);" />
<path d="M 2597.17,2021.97 L 2658.12,2050.96 " style="stroke-linecap:round;fill:rgb(66,146,198);" />
<path d="M2597.167,2021.967 A1215.000,1215.000 40.000 0,1 2586.899,2043.024 L2647.283,2073.192 A1282.500,1282.500 0.000 0,0 2658.121,2050.965 Z" style="stroke-linecap:round;fill:rgb(66,146,198);" />
<path d="M 2586.90,2043.02 L 2647.28,2073.19 " style="stroke-linecap:round;fill:rgb(66,146,198);" />
<path d="M2586.899,2043.024 A1215.000,1215.000 40.000 0,1 2581.061,2054.555 L2641.120,2085.364 A1282.500,1282.500 0.000 0,0 2647.283,2073.192 Z" style="stroke-linecap:round;fill:rgb(66,146,198);" />
<path d="M 2581.06,2054.56 L 2641.12,2085.36 " style="stroke-linecap:round;fill:rgb(66,146,198);" />
<path d="M2581.061,2054.555 A1215.000,1215.000 40.000 0,1 2574.895,2066.415 L2634.611,2097.883 A1282.500,1282.500 0.000 0,0 2641.120,2085.364 Z" style="stroke-linecap:round;fill:rgb(66,146,198);" />
<path d="M 2634.61,2097.88 L 2574.89,2066.42 " style="stroke-linecap:round;fill:none;" />
<path d="M1212.749,2680.556 A1215.000,1215.000 40.000 0,1 1196.294,2676.430 L1179.421,2741.787 A1282.500,1282.500 0.000 0,0 1196.790,2746.142 Z" style="stroke-linecap:round;fill:rgb(66,146,198);" />
<path d="M780.589,2479.118 A1215.000,1215.000 40.000 0,1 759.281,2463.099 L718.130,2516.605 A1282.500,1282.500 0.000 0,0 740.622,2533.514 Z" style="stroke-linecap:round;fill:rgb(66,146,198);" />
<path d="M 759.28,2463.10 L 718.13,2516.60 " style="stroke-linecap:round;fill:rgb(66,146,198);" />
<path d="M759.281,2463.099 A1215.000,1215.000 40.000 0,1 747.174,2453.665 L705.350,2506.647 A1282.500,1282.500 0.000 0,0 718.130,2516.605 Z" style="stroke-linecap:round;fill:rgb(66,146,198);" />
<path d="M747.174,2453.665 A1215.000,1215.000 40.000 0,1 741.165,2448.891 L699.008,2501.607 A1282.500,1282.500 0.000 0,0 705.350,2506.647 Z" style="stroke-linecap:round;fill:rgb(66,146,198);" />
<path d="M741.165,2448.891 A1215.000,1215.000 40.000 0,1 718.363,2430.198 L674.939,2481.876 A1282.500,1282.500 0.000 0,0 699.008,2501.607 Z" style="stroke-linecap:round;fill:rgb(66,146,198);" />
<path d="M 674.94,2481.88 L 718.36,2430.20 " style="stroke-linecap:round;fill:none;" />
<path d="M491.326,2177.349 A1215.000,1215.000 40.000 0,1 473.238,2149.604 L416.196,2185.693 A1282.500,1282.500 0.000 0,0 435.288,2214.979 Z" style="stroke-linecap:round;fill:rgb(66,146,198);" />
<path d="M 473.24,2149.60 L 416.20,2185.69 " style="stroke-linecap:round;fill:rgb(66,146,198);" />
<path d="M473.238,2149.604 A1215.000,1215.000 40.000 0,1 463.425,2133.827 L405.837,2169.039 A1282.500,1282.500 0.000 0,0 416.196,2185.693 Z" style="stroke-linecap:round;fill:rgb(66,146,198);" />
<path d="M 405.84,2169.04 L 463.42,2133.83 " style="stroke-linecap:round;fill:none;" />
<path d="M306.647,1728.326 A1215.000,1215.000 40.000 0,1 302.059,1702.886 L235.507,1714.157 A1282.500,1282.500 0.000 0,0 240.349,1741.010 Z" style="stroke-linecap:round;fill:rgb(66,146,198);" />
<path d="M1100.031,352.721 A1215.000,1215.000 40.000 0,1 1113.024,348.273 L1091.525,284.288 A1282.500,1282.500 0.000 0,0 1077.811,288.983 Z" style="stroke-linecap:round;fill:rgb(66,146,198);" />
</g>
<g id="plot2">
<g id="plot2-axis">
<path d="M1500.000,420.000 A1080.000,1080.000 40.000 0,1 2207.045,683.614 L2251.236,632.589 A1147.500,1147.500 0.000 0,0 1500.000,352.500 Z" style="stroke-linecap:round;fill:rgb(217,217,217);" />
<path d="M2231.039,705.027 A1080.000,1080.000 40.000 0,1 2568.579,1343.353 L2635.366,1333.563 A1147.500,1147.500 0.000 0,0 2276.729,655.341 Z" style="stroke-linecap:round;fill:rgb(217,217,217);" />
<path d="M2572.770,1375.238 A1080.000,1080.000 40.000 0,1 2455.462,2003.480 L2515.178,2034.948 A1147.500,1147.500 0.000 0,0 2639.818,1367.441 Z" style="stroke-linecap:round;fill:rgb(217,217,217);" />
<path d="M2440.048,2031.705 A1080.000,1080.000 40.000 0,1 2033.057,2439.282 L2066.373,2497.987 A1147.500,1147.500 0.000 0,0 2498.801,2064.936 Z" style="stroke-linecap:round;fill:rgb(217,217,217);" />
<path d="M2004.855,2454.736 A1080.000,1080.000 40.000 0,1 1464.681,2579.422 L1462.473,2646.886 A1147.500,1147.500 0.000 0,0 2036.408,2514.407 Z" style="stroke-linecap:round;fill:rgb(217,217,217);" />
<path d="M1432.558,2577.892 A1080.000,1080.000 40.000 0,1 1024.774,2469.825 L995.073,2530.439 A1147.500,1147.500 0.000 0,0 1428.343,2645.260 Z" style="stroke-linecap:round;fill:rgb(217,217,217);" />
<path d="M996.110,2455.246 A1080.000,1080.000 40.000 0,1 651.029,2167.569 L597.968,2209.292 A1147.500,1147.500 0.000 0,0 964.617,2514.949 Z" style="stroke-linecap:round;fill:rgb(217,217,217);" />
<path d="M631.529,2141.996 A1080.000,1080.000 40.000 0,1 473.664,1836.206 L409.518,1857.218 A1147.500,1147.500 0.000 0,0 577.250,2182.120 Z" style="stroke-linecap:round;fill:rgb(217,217,217);" />
<path d="M464.109,1805.499 A1080.000,1080.000 40.000 0,1 421.594,1441.351 L354.193,1437.686 A1147.500,1147.500 0.000 0,0 399.366,1824.592 Z" style="stroke-linecap:round;fill:rgb(217,217,217);" />
<path d="M423.818,1409.269 A1080.000,1080.000 40.000 0,1 1026.040,529.556 L996.417,468.903 A1147.500,1147.500 0.000 0,0 356.557,1403.599 Z" style="stroke-linecap:round;fill:rgb(217,217,217);" />
<path d="M1055.144,515.875 A1080.000,1080.000 40.000 0,1 1467.844,420.479 L1465.835,353.009 A1147.500,1147.500 0.000 0,0 1027.340,454.367 Z" style="stroke-linecap:round;fill:rgb(217,217,217);" />
</g>
<path d="M2325.374,803.467 A1080.000,1080.000 40.000 0,1 2333.194,812.840 L2385.268,769.893 A1147.500,1147.500 0.000 0,0 2376.959,759.933 Z" style="stroke-linecap:round;fill:rgb(239,59,44);" />
<path d="M2577.275,1576.673 A1080.000,1080.000 40.000 0,1 2572.956,1623.144 L2640.016,1630.840 A1147.500,1147.500 0.000 0,0 2644.605,1581.465 Z" style="stroke-linecap:round;fill:rgb(239,59,44);" />
<path d="M2572.956,1623.144 A1080.000,1080.000 40.000 0,1 2571.224,1637.400 L2638.176,1645.988 A1147.500,1147.500 0.000 0,0 2640.016,1630.840 Z" style="stroke-linecap:round;fill:rgb(239,59,44);" />
<path d="M2571.224,1637.400 A1080.000,1080.000 40.000 0,1 2559.171,1711.086 L2625.369,1724.279 A1147.500,1147.500 0.000 0,0 2638.176,1645.988 Z" style="stroke-linecap:round;fill:rgb(239,59,44);" />
<path d="M2559.171,1711.086 A1080.000,1080.000 40.000 0,1 2539.173,1794.141 L2604.122,1812.524 A1147.500,1147.500 0.000 0,0 2625.369,1724.279 Z" style="stroke-linecap:round;fill:rgb(239,59,44);" />
<path d="M2539.173,1794.141 A1080.000,1080.000 40.000 0,1 2507.334,1889.458 L2570.293,1913.799 A1147.500,1147.500 0.000 0,0 2604.122,1812.524 Z" style="stroke-linecap:round;fill:rgb(239,59,44);" />
<path d="M2507.334,1889.458 A1080.000,1080.000 40.000 0,1 2485.498,1941.807 L2547.092,1969.420 A1147.500,1147.500 0.000 0,0 2570.293,1913.799 Z" style="stroke-linecap:round;fill:rgb(239,59,44);" />
<path d="M2485.498,1941.807 A1080.000,1080.000 40.000 0,1 2455.462,2003.480 L2515.178,2034.948 A1147.500,1147.500 0.000 0,0 2547.092,1969.420 Z" style="stroke-linecap:round;fill:rgb(239,59,44);" />
<path d="M 2515.18,2034.95 L 2455.46,2003.48 " style="stroke-linecap:round;fill:none;" />
<path d="M2343.619,2174.319 A1080.000,1080.000 40.000 0,1 2335.489,2184.367 L2387.707,2227.140 A1147.500,1147.500 0.000 0,0 2396.346,2216.464 Z" style="stroke-linecap:round;fill:rgb(239,59,44);" />
<path d="M1500.415,2580.000 A1080.000,1080.000 40.000 0,1 1464.681,2579.422 L1462.473,2646.886 A1147.500,1147.500 0.000 0,0 1500.441,2647.500 Z" style="stroke-linecap:round;fill:rgb(239,59,44);" />
<path d="M1244.665,2549.383 A1080.000,1080.000 40.000 0,1 1230.039,2545.716 L1213.166,2611.073 A1147.500,1147.500 0.000 0,0 1228.707,2614.969 Z" style="stroke-linecap:round;fill:rgb(239,59,44);" />
<path d="M841.583,2356.088 A1080.000,1080.000 40.000 0,1 830.821,2347.703 L788.997,2400.684 A1147.500,1147.500 0.000 0,0 800.432,2409.594 Z" style="stroke-linecap:round;fill:rgb(239,59,44);" />
<path d="M830.821,2347.703 A1080.000,1080.000 40.000 0,1 825.480,2343.459 L783.323,2396.175 A1147.500,1147.500 0.000 0,0 788.997,2400.684 Z" style="stroke-linecap:round;fill:rgb(239,59,44);" />
<path d="M825.480,2343.459 A1080.000,1080.000 40.000 0,1 805.212,2326.843 L761.787,2378.520 A1147.500,1147.500 0.000 0,0 783.323,2396.175 Z" style="stroke-linecap:round;fill:rgb(239,59,44);" />
<path d="M 761.79,2378.52 L 805.21,2326.84 " style="stroke-linecap:round;fill:none;" />
<path d="M603.401,2102.088 A1080.000,1080.000 40.000 0,1 587.323,2077.425 L530.280,2113.515 A1147.500,1147.500 0.000 0,0 547.363,2139.718 Z" style="stroke-linecap:round;fill:rgb(239,59,44);" />
<path d="M 587.32,2077.43 L 530.28,2113.51 " style="stroke-linecap:round;fill:rgb(239,59,44);" />
<path d="M587.323,2077.425 A1080.000,1080.000 40.000 0,1 578.600,2063.402 L521.012,2098.614 A1147.500,1147.500 0.000 0,0 530.280,2113.515 Z" style="stroke-linecap:round;fill:rgb(239,59,44);" />
<path d="M578.600,2063.402 A1080.000,1080.000 40.000 0,1 576.545,2060.028 L518.830,2095.030 A1147.500,1147.500 0.000 0,0 521.012,2098.614 Z" style="stroke-linecap:round;fill:rgb(239,59,44);" />
<path d="M576.545,2060.028 A1080.000,1080.000 40.000 0,1 566.822,2043.672 L508.498,2077.651 A1147.500,1147.500 0.000 0,0 518.830,2095.030 Z" style="stroke-linecap:round;fill:rgb(239,59,44);" />
<path d="M566.822,2043.672 A1080.000,1080.000 40.000 0,1 523.066,1960.434 L462.007,1989.211 A1147.500,1147.500 0.000 0,0 508.498,2077.651 Z" style="stroke-linecap:round;fill:rgb(239,59,44);" />
<path d="M523.066,1960.434 A1080.000,1080.000 40.000 0,1 473.664,1836.206 L409.518,1857.218 A1147.500,1147.500 0.000 0,0 462.007,1989.211 Z" style="stroke-linecap:round;fill:rgb(239,59,44);" />
<path d="M 409.52,1857.22 L 473.66,1836.21 " style="stroke-linecap:round;fill:none;" />
<path d="M430.444,1649.830 A1080.000,1080.000 40.000 0,1 429.188,1640.580 L362.263,1649.366 A1147.500,1147.500 0.000 0,0 363.596,1659.194 Z" style="stroke-linecap:round;fill:rgb(239,59,44);" />
<path d="M1144.472,480.196 A1080.000,1080.000 40.000 0,1 1156.021,476.243 L1134.523,412.258 A1147.500,1147.500 0.000 0,0 1122.252,416.458 Z" style="stroke-linecap:round;fill:rgb(239,59,44);" />
</g>
<g id="plot3">
<g id="plot3-axis">
<path d="M1500.000,487.500 A1012.500,1012.500 40.000 0,1 2162.855,734.638 L2207.045,683.614 A1080.000,1080.000 0.000 0,0 1500.000,420.000 Z" style="stroke-linecap:round;fill:rgb(217,217,217);" />
<path d="M2185.349,754.713 A1012.500,1012.500 40.000 0,1 2501.793,1353.144 L2568.579,1343.353 A1080.000,1080.000 0.000 0,0 2231.039,705.027 Z" style="stroke-linecap:round;fill:rgb(217,217,217);" />
<path d="M2505.721,1383.036 A1012.500,1012.500 40.000 0,1 2395.746,1972.013 L2455.462,2003.480 A1080.000,1080.000 0.000 0,0 2572.770,1375.238 Z" style="stroke-linecap:round;fill:rgb(217,217,217);" />
<path d="M2381.295,1998.473 A1012.500,1012.500 40.000 0,1 1999.741,2380.577 L2033.057,2439.282 A1080.000,1080.000 0.000 0,0 2440.048,2031.705 Z" style="stroke-linecap:round;fill:rgb(217,217,217);" />
<path d="M1973.301,2395.065 A1012.500,1012.500 40.000 0,1 1466.888,2511.958 L1464.681,2579.422 A1080.000,1080.000 0.000 0,0 2004.855,2454.736 Z" style="stroke-linecap:round;fill:rgb(217,217,217);" />
<path d="M1436.773,2510.524 A1012.500,1012.500 40.000 0,1 1054.476,2409.211 L1024.774,2469.825 A1080.000,1080.000 0.000 0,0 1432.558,2577.892 Z" style="stroke-linecap:round;fill:rgb(217,217,217);" />
<path d="M1027.603,2395.543 A1012.500,1012.500 40.000 0,1 704.089,2125.846 L651.029,2167.569 A1080.000,1080.000 0.000 0,0 996.110,2455.246 Z" style="stroke-linecap:round;fill:rgb(217,217,217);" />
<path d="M685.809,2101.871 A1012.500,1012.500 40.000 0,1 537.810,1815.193 L473.664,1836.206 A1080.000,1080.000 0.000 0,0 631.529,2141.996 Z" style="stroke-linecap:round;fill:rgb(217,217,217);" />
<path d="M528.852,1786.405 A1012.500,1012.500 40.000 0,1 488.994,1445.017 L421.594,1441.351 A1080.000,1080.000 0.000 0,0 464.109,1805.499 Z" style="stroke-linecap:round;fill:rgb(217,217,217);" />
<path d="M491.079,1414.940 A1012.500,1012.500 40.000 0,1 1055.662,590.209 L1026.040,529.556 A1080.000,1080.000 0.000 0,0 423.818,1409.269 Z" style="stroke-linecap:round;fill:rgb(217,217,217);" />
<path d="M1082.947,577.382 A1012.500,1012.500 40.000 0,1 1469.854,487.949 L1467.844,420.479 A1080.000,1080.000 0.000 0,0 1055.144,515.875 Z" style="stroke-linecap:round;fill:rgb(217,217,217);" />
</g>
<path d="M2273.788,847.000 A1012.500,1012.500 40.000 0,1 2281.119,855.788 L2333.194,812.840 A1080.000,1080.000 0.000 0,0 2325.374,803.467 Z" style="stroke-linecap:round;fill:rgb(66,146,198);" />
<path d="M2281.119,855.788 A1012.500,1012.500 40.000 0,1 2370.994,983.739 L2429.060,949.321 A1080.000,1080.000 0.000 0,0 2333.194,812.840 Z" style="stroke-linecap:round;fill:rgb(66,146,198);" />
<path d="M2370.994,983.739 A1012.500,1012.500 40.000 0,1 2440.346,1124.627 L2503.036,1099.602 A1080.000,1080.000 0.000 0,0 2429.060,949.321 Z" style="stroke-linecap:round;fill:rgb(66,146,198);" />
<path d="M 2503.04,1099.60 L 2440.35,1124.63 " style="stroke-linecap:round;fill:none;" />
<path d="M2509.945,1571.881 A1012.500,1012.500 40.000 0,1 2505.897,1615.447 L2572.956,1623.144 A1080.000,1080.000 0.000 0,0 2577.275,1576.673 Z" style="stroke-linecap:round;fill:rgb(66,146,198);" />
<path d="M2505.897,1615.447 A1012.500,1012.500 40.000 0,1 2484.762,1735.374 L2550.412,1751.065 A1080.000,1080.000 0.000 0,0 2572.956,1623.144 Z" style="stroke-linecap:round;fill:rgb(66,146,198);" />
<path d="M2484.762,1735.374 A1012.500,1012.500 40.000 0,1 2444.376,1865.116 L2507.334,1889.458 A1080.000,1080.000 0.000 0,0 2550.412,1751.065 Z" style="stroke-linecap:round;fill:rgb(66,146,198);" />
<path d="M2444.376,1865.116 A1012.500,1012.500 40.000 0,1 2423.904,1914.194 L2485.498,1941.807 A1080.000,1080.000 0.000 0,0 2507.334,1889.458 Z" style="stroke-linecap:round;fill:rgb(66,146,198);" />
<path d="M2423.904,1914.194 A1012.500,1012.500 40.000 0,1 2395.746,1972.013 L2455.462,2003.480 A1080.000,1080.000 0.000 0,0 2485.498,1941.807 Z" style="stroke-linecap:round;fill:rgb(66,146,198);" />
<path d="M 2455.46,2003.48 L 2395.75,1972.01 " style="stroke-linecap:round;fill:none;" />
<path d="M2290.893,2132.174 A1012.500,1012.500 40.000 0,1 2283.271,2141.594 L2335.489,2184.367 A1080.000,1080.000 0.000 0,0 2343.619,2174.319 Z" style="stroke-linecap:round;fill:rgb(66,146,198);" />
<path d="M1343.785,2500.376 A1012.500,1012.500 40.000 0,1 1343.120,2500.272 L1332.661,2566.957 A1080.000,1080.000 0.000 0,0 1333.370,2567.068 Z" style="stroke-linecap:round;fill:rgb(66,146,198);" />
<path d="M659.438,2064.457 A1012.500,1012.500 40.000 0,1 644.365,2041.336 L587.323,2077.425 A1080.000,1080.000 0.000 0,0 603.401,2102.088 Z" style="stroke-linecap:round;fill:rgb(66,146,198);" />
<path d="M 644.37,2041.34 L 587.32,2077.43 " style="stroke-linecap:round;fill:rgb(66,146,198);" />
<path d="M644.365,2041.336 A1012.500,1012.500 40.000 0,1 636.187,2028.189 L578.600,2063.402 A1080.000,1080.000 0.000 0,0 587.323,2077.425 Z" style="stroke-linecap:round;fill:rgb(66,146,198);" />
<path d="M636.187,2028.189 A1012.500,1012.500 40.000 0,1 634.261,2025.027 L576.545,2060.028 A1080.000,1080.000 0.000 0,0 578.600,2063.402 Z" style="stroke-linecap:round;fill:rgb(66,146,198);" />
<path d="M634.261,2025.027 A1012.500,1012.500 40.000 0,1 625.146,2009.692 L566.822,2043.672 A1080.000,1080.000 0.000 0,0 576.545,2060.028 Z" style="stroke-linecap:round;fill:rgb(66,146,198);" />
<path d="M 566.82,2043.67 L 625.15,2009.69 " style="stroke-linecap:round;fill:none;" />
<path d="M1166.693,543.934 A1012.500,1012.500 40.000 0,1 1177.520,540.228 L1156.021,476.243 A1080.000,1080.000 0.000 0,0 1144.472,480.196 Z" style="stroke-linecap:round;fill:rgb(66,146,198);" />
</g>
<g id="plot4">
<g id="plot4-axis">
<path d="M1500.000,622.500 A877.500,877.500 40.000 0,1 2074.474,836.686 L2118.665,785.662 A945.000,945.000 0.000 0,0 1500.000,555.000 Z" style="stroke-linecap:round;fill:rgb(217,217,217);" />
<path d="M2093.969,854.084 A877.500,877.500 40.000 0,1 2368.221,1372.724 L2435.007,1362.934 A945.000,945.000 0.000 0,0 2139.659,804.399 Z" style="stroke-linecap:round;fill:rgb(217,217,217);" />
<path d="M2371.625,1398.631 A877.500,877.500 40.000 0,1 2276.313,1909.078 L2336.029,1940.545 A945.000,945.000 0.000 0,0 2438.673,1390.833 Z" style="stroke-linecap:round;fill:rgb(217,217,217);" />
<path d="M2263.789,1932.010 A877.500,877.500 40.000 0,1 1933.109,2263.166 L1966.425,2321.872 A945.000,945.000 0.000 0,0 2322.542,1965.242 Z" style="stroke-linecap:round;fill:rgb(217,217,217);" />
<path d="M1910.195,2275.723 A877.500,877.500 40.000 0,1 1471.303,2377.031 L1469.096,2444.495 A945.000,945.000 0.000 0,0 1941.748,2335.394 Z" style="stroke-linecap:round;fill:rgb(217,217,217);" />
<path d="M1445.204,2375.787 A877.500,877.500 40.000 0,1 1113.879,2287.983 L1084.178,2348.597 A945.000,945.000 0.000 0,0 1440.988,2443.156 Z" style="stroke-linecap:round;fill:rgb(217,217,217);" />
<path d="M1090.589,2276.137 A877.500,877.500 40.000 0,1 810.211,2042.399 L757.150,2084.122 A945.000,945.000 0.000 0,0 1059.096,2335.840 Z" style="stroke-linecap:round;fill:rgb(217,217,217);" />
<path d="M794.367,2021.621 A877.500,877.500 40.000 0,1 666.102,1773.167 L601.956,1794.180 A945.000,945.000 0.000 0,0 740.088,2061.746 Z" style="stroke-linecap:round;fill:rgb(217,217,217);" />
<path d="M658.338,1748.218 A877.500,877.500 40.000 0,1 623.795,1452.348 L556.394,1448.683 A945.000,945.000 0.000 0,0 593.595,1767.311 Z" style="stroke-linecap:round;fill:rgb(217,217,217);" />
<path d="M625.602,1426.281 A877.500,877.500 40.000 0,1 1114.907,711.514 L1085.285,650.861 A945.000,945.000 0.000 0,0 558.341,1420.611 Z" style="stroke-linecap:round;fill:rgb(217,217,217);" />
<path d="M1138.554,700.398 A877.500,877.500 40.000 0,1 1473.874,622.889 L1471.864,555.419 A945.000,945.000 0.000 0,0 1110.751,638.890 Z" style="stroke-linecap:round;fill:rgb(217,217,217);" />
</g>
<path d="M2375.286,1562.297 A877.500,877.500 40.000 0,1 2371.777,1600.054 L2438.837,1607.751 A945.000,945.000 0.000 0,0 2442.616,1567.089 Z" style="stroke-linecap:round;fill:rgb(239,59,44);" />
<path d="M2263.789,1932.010 A877.500,877.500 40.000 0,1 2254.127,1948.663 L2312.137,1983.176 A945.000,945.000 0.000 0,0 2322.542,1965.242 Z" style="stroke-linecap:round;fill:rgb(239,59,44);" />
<path d="M 2254.13,1948.66 L 2312.14,1983.18 " style="stroke-linecap:round;fill:rgb(239,59,44);" />
<path d="M2254.127,1948.663 A877.500,877.500 40.000 0,1 2244.411,1964.605 L2301.674,2000.344 A945.000,945.000 0.000 0,0 2312.137,1983.176 Z" style="stroke-linecap:round;fill:rgb(239,59,44);" />
<path d="M 2244.41,1964.61 L 2301.67,2000.34 " style="stroke-linecap:round;fill:rgb(239,59,44);" />
<path d="M2244.411,1964.605 A877.500,877.500 40.000 0,1 2231.149,1985.209 L2287.391,2022.533 A945.000,945.000 0.000 0,0 2301.674,2000.344 Z" style="stroke-linecap:round;fill:rgb(239,59,44);" />
<path d="M 2231.15,1985.21 L 2287.39,2022.53 " style="stroke-linecap:round;fill:rgb(239,59,44);" />
<path d="M2231.149,1985.209 A877.500,877.500 40.000 0,1 2213.600,2010.668 L2268.492,2049.950 A945.000,945.000 0.000 0,0 2287.391,2022.533 Z" style="stroke-linecap:round;fill:rgb(239,59,44);" />
<path d="M 2213.60,2010.67 L 2268.49,2049.95 " style="stroke-linecap:round;fill:rgb(239,59,44);" />
<path d="M2213.600,2010.668 A877.500,877.500 40.000 0,1 2191.949,2039.642 L2245.175,2081.153 A945.000,945.000 0.000 0,0 2268.492,2049.950 Z" style="stroke-linecap:round;fill:rgb(239,59,44);" />
<path d="M 2245.18,2081.15 L 2191.95,2039.64 " style="stroke-linecap:round;fill:none;" />
<path d="M965.036,2195.572 A877.500,877.500 40.000 0,1 956.292,2188.758 L914.469,2241.740 A945.000,945.000 0.000 0,0 923.885,2249.077 Z" style="stroke-linecap:round;fill:rgb(239,59,44);" />
<path d="M771.513,1989.196 A877.500,877.500 40.000 0,1 758.450,1969.158 L701.407,2005.247 A945.000,945.000 0.000 0,0 715.475,2026.827 Z" style="stroke-linecap:round;fill:rgb(239,59,44);" />
<path d="M 758.45,1969.16 L 701.41,2005.25 " style="stroke-linecap:round;fill:rgb(239,59,44);" />
<path d="M758.450,1969.158 A877.500,877.500 40.000 0,1 751.362,1957.764 L693.775,1992.976 A945.000,945.000 0.000 0,0 701.407,2005.247 Z" style="stroke-linecap:round;fill:rgb(239,59,44);" />
<path d="M 693.77,1992.98 L 751.36,1957.76 " style="stroke-linecap:round;fill:none;" />
</g>
<g id="plot5">
<g id="plot5-axis">
<path d="M1500.000,690.000 A810.000,810.000 40.000 0,1 2030.284,887.710 L2074.474,836.686 A877.500,877.500 0.000 0,0 1500.000,622.500 Z" style="stroke-linecap:round;fill:rgb(217,217,217);" />
<path d="M2048.279,903.770 A810.000,810.000 40.000 0,1 2301.434,1382.515 L2368.221,1372.724 A877.500,877.500 0.000 0,0 2093.969,854.084 Z" style="stroke-linecap:round;fill:rgb(217,217,217);" />
<path d="M2304.577,1406.429 A810.000,810.000 40.000 0,1 2216.596,1877.610 L2276.313,1909.078 A877.500,877.500 0.000 0,0 2371.625,1398.631 Z" style="stroke-linecap:round;fill:rgb(217,217,217);" />
<path d="M2205.036,1898.779 A810.000,810.000 40.000 0,1 1899.793,2204.461 L1933.109,2263.166 A877.500,877.500 0.000 0,0 2263.789,1932.010 Z" style="stroke-linecap:round;fill:rgb(217,217,217);" />
<path d="M1878.641,2216.052 A810.000,810.000 40.000 0,1 1473.511,2309.567 L1471.303,2377.031 A877.500,877.500 0.000 0,0 1910.195,2275.723 Z" style="stroke-linecap:round;fill:rgb(217,217,217);" />
<path d="M1449.419,2308.419 A810.000,810.000 40.000 0,1 1143.581,2227.369 L1113.879,2287.983 A877.500,877.500 0.000 0,0 1445.204,2375.787 Z" style="stroke-linecap:round;fill:rgb(217,217,217);" />
<path d="M1122.082,2216.434 A810.000,810.000 40.000 0,1 863.272,2000.676 L810.211,2042.399 A877.500,877.500 0.000 0,0 1090.589,2276.137 Z" style="stroke-linecap:round;fill:rgb(217,217,217);" />
<path d="M848.647,1981.497 A810.000,810.000 40.000 0,1 730.248,1752.154 L666.102,1773.167 A877.500,877.500 0.000 0,0 794.367,2021.621 Z" style="stroke-linecap:round;fill:rgb(217,217,217);" />
<path d="M723.082,1729.124 A810.000,810.000 40.000 0,1 691.195,1456.014 L623.795,1452.348 A877.500,877.500 0.000 0,0 658.338,1748.218 Z" style="stroke-linecap:round;fill:rgb(217,217,217);" />
<path d="M692.863,1431.952 A810.000,810.000 40.000 0,1 1144.530,772.167 L1114.907,711.514 A877.500,877.500 0.000 0,0 625.602,1426.281 Z" style="stroke-linecap:round;fill:rgb(217,217,217);" />
<path d="M1166.358,761.906 A810.000,810.000 40.000 0,1 1475.883,690.359 L1473.874,622.889 A877.500,877.500 0.000 0,0 1138.554,700.398 Z" style="stroke-linecap:round;fill:rgb(217,217,217);" />
</g>
<path d="M2016.518,876.053 A810.000,810.000 40.000 0,1 2030.284,887.710 L2074.474,836.686 A877.500,877.500 0.000 0,0 2059.561,824.058 Z" style="stroke-linecap:round;fill:rgb(66,146,198);" />
<path d="M2119.030,977.600 A810.000,810.000 40.000 0,1 2124.895,984.630 L2176.970,941.683 A877.500,877.500 0.000 0,0 2170.616,934.067 Z" style="stroke-linecap:round;fill:rgb(66,146,198);" />
<path d="M2124.895,984.630 A810.000,810.000 40.000 0,1 2185.423,1068.380 L2242.541,1032.412 A877.500,877.500 0.000 0,0 2176.970,941.683 Z" style="stroke-linecap:round;fill:rgb(66,146,198);" />
<path d="M2185.423,1068.380 A810.000,810.000 40.000 0,1 2235.248,1160.131 L2296.518,1131.809 A877.500,877.500 0.000 0,0 2242.541,1032.412 Z" style="stroke-linecap:round;fill:rgb(66,146,198);" />
<path d="M2235.248,1160.131 A810.000,810.000 40.000 0,1 2243.919,1179.556 L2305.912,1152.852 A877.500,877.500 0.000 0,0 2296.518,1131.809 Z" style="stroke-linecap:round;fill:rgb(66,146,198);" />
<path d="M2243.919,1179.556 A810.000,810.000 40.000 0,1 2252.277,1199.702 L2314.967,1174.677 A877.500,877.500 0.000 0,0 2305.912,1152.852 Z" style="stroke-linecap:round;fill:rgb(66,146,198);" />
<path d="M 2252.28,1199.70 L 2314.97,1174.68 " style="stroke-linecap:round;fill:rgb(66,146,198);" />
<path d="M2252.277,1199.702 A810.000,810.000 40.000 0,1 2252.676,1200.702 L2315.399,1175.761 A877.500,877.500 0.000 0,0 2314.967,1174.677 Z" style="stroke-linecap:round;fill:rgb(66,146,198);" />
<path d="M 2315.40,1175.76 L 2252.68,1200.70 " style="stroke-linecap:round;fill:none;" />
<path d="M2307.956,1557.505 A810.000,810.000 40.000 0,1 2304.717,1592.358 L2371.777,1600.054 A877.500,877.500 0.000 0,0 2375.286,1562.297 Z" style="stroke-linecap:round;fill:rgb(66,146,198);" />
<path d="M2304.717,1592.358 A810.000,810.000 40.000 0,1 2303.418,1603.050 L2370.370,1611.638 A877.500,877.500 0.000 0,0 2371.777,1600.054 Z" style="stroke-linecap:round;fill:rgb(66,146,198);" />
<path d="M2303.418,1603.050 A810.000,810.000 40.000 0,1 2294.378,1658.314 L2360.576,1671.507 A877.500,877.500 0.000 0,0 2370.370,1611.638 Z" style="stroke-linecap:round;fill:rgb(66,146,198);" />
<path d="M 2360.58,1671.51 L 2294.38,1658.31 " style="stroke-linecap:round;fill:none;" />
<path d="M1375.028,2300.301 A810.000,810.000 40.000 0,1 1374.496,2300.218 L1364.037,2366.903 A877.500,877.500 0.000 0,0 1364.613,2366.993 Z" style="stroke-linecap:round;fill:rgb(66,146,198);" />
<path d="M1006.187,2142.066 A810.000,810.000 40.000 0,1 998.116,2135.777 L956.292,2188.758 A877.500,877.500 0.000 0,0 965.036,2195.572 Z" style="stroke-linecap:round;fill:rgb(66,146,198);" />
<path d="M827.550,1951.566 A810.000,810.000 40.000 0,1 815.492,1933.069 L758.450,1969.158 A877.500,877.500 0.000 0,0 771.513,1989.196 Z" style="stroke-linecap:round;fill:rgb(66,146,198);" />
<path d="M 815.49,1933.07 L 758.45,1969.16 " style="stroke-linecap:round;fill:rgb(66,146,198);" />
<path d="M815.492,1933.069 A810.000,810.000 40.000 0,1 808.950,1922.551 L751.362,1957.764 A877.500,877.500 0.000 0,0 758.450,1969.158 Z" style="stroke-linecap:round;fill:rgb(66,146,198);" />
<path d="M 751.36,1957.76 L 808.95,1922.55 " style="stroke-linecap:round;fill:none;" />
<path d="M704.431,1652.217 A810.000,810.000 40.000 0,1 701.373,1635.257 L634.820,1646.529 A877.500,877.500 0.000 0,0 638.134,1664.902 Z" style="stroke-linecap:round;fill:rgb(66,146,198);" />
</g>
<g id="plot6">
<g id="plot6-axis">
<path d="M1500.000,825.000 A675.000,675.000 40.000 0,1 1941.903,989.758 L1986.094,938.734 A742.500,742.500 0.000 0,0 1500.000,757.500 Z" style="stroke-linecap:round;fill:rgb(217,217,217);" />
<path d="M1956.899,1003.142 A675.000,675.000 40.000 0,1 2167.862,1402.096 L2234.648,1392.305 A742.500,742.500 0.000 0,0 2002.589,953.456 Z" style="stroke-linecap:round;fill:rgb(217,217,217);" />
<path d="M2170.481,1422.024 A675.000,675.000 40.000 0,1 2097.164,1814.675 L2156.880,1846.143 A742.500,742.500 0.000 0,0 2237.529,1414.226 Z" style="stroke-linecap:round;fill:rgb(217,217,217);" />
<path d="M2087.530,1832.316 A675.000,675.000 40.000 0,1 1833.161,2087.051 L1866.477,2145.756 A742.500,742.500 0.000 0,0 2146.283,1865.547 Z" style="stroke-linecap:round;fill:rgb(217,217,217);" />
<path d="M1815.534,2096.710 A675.000,675.000 40.000 0,1 1477.926,2174.639 L1475.718,2242.103 A742.500,742.500 0.000 0,0 1847.088,2156.381 Z" style="stroke-linecap:round;fill:rgb(217,217,217);" />
<path d="M1457.849,2173.683 A675.000,675.000 40.000 0,1 1202.984,2106.141 L1173.282,2166.755 A742.500,742.500 0.000 0,0 1453.634,2241.051 Z" style="stroke-linecap:round;fill:rgb(217,217,217);" />
<path d="M1185.069,2097.029 A675.000,675.000 40.000 0,1 969.393,1917.230 L916.332,1958.953 A742.500,742.500 0.000 0,0 1153.576,2156.732 Z" style="stroke-linecap:round;fill:rgb(217,217,217);" />
<path d="M957.206,1901.247 A675.000,675.000 40.000 0,1 858.540,1710.129 L794.394,1731.141 A742.500,742.500 0.000 0,0 902.926,1941.372 Z" style="stroke-linecap:round;fill:rgb(217,217,217);" />
<path d="M852.568,1690.937 A675.000,675.000 40.000 0,1 825.996,1463.345 L758.596,1459.679 A742.500,742.500 0.000 0,0 787.825,1710.030 Z" style="stroke-linecap:round;fill:rgb(217,217,217);" />
<path d="M827.386,1443.293 A675.000,675.000 40.000 0,1 1203.775,893.472 L1174.152,832.820 A742.500,742.500 0.000 0,0 760.125,1437.623 Z" style="stroke-linecap:round;fill:rgb(217,217,217);" />
<path d="M1221.965,884.922 A675.000,675.000 40.000 0,1 1479.903,825.299 L1477.893,757.829 A742.500,742.500 0.000 0,0 1194.161,823.414 Z" style="stroke-linecap:round;fill:rgb(217,217,217);" />
</g>
<path d="M1724.101,863.287 A675.000,675.000 40.000 0,1 1737.596,868.199 L1761.356,805.019 A742.500,742.500 0.000 0,0 1746.511,799.616 Z" style="stroke-linecap:round;fill:rgb(239,59,44);" />
<path d="M1737.596,868.199 A675.000,675.000 40.000 0,1 1759.915,877.048 L1785.907,814.753 A742.500,742.500 0.000 0,0 1761.356,805.019 Z" style="stroke-linecap:round;fill:rgb(239,59,44);" />
<path d="M1759.915,877.048 A675.000,675.000 40.000 0,1 1794.486,892.626 L1823.934,831.889 A742.500,742.500 0.000 0,0 1785.907,814.753 Z" style="stroke-linecap:round;fill:rgb(239,59,44);" />
<path d="M 1823.93,831.89 L 1794.49,892.63 " style="stroke-linecap:round;fill:none;" />
<path d="M2092.965,1177.482 A675.000,675.000 40.000 0,1 2100.104,1190.968 L2160.114,1160.065 A742.500,742.500 0.000 0,0 2152.261,1145.231 Z" style="stroke-linecap:round;fill:rgb(239,59,44);" />
<path d="M 2100.10,1190.97 L 2160.11,1160.06 " style="stroke-linecap:round;fill:rgb(239,59,44);" />
<path d="M2100.104,1190.968 A675.000,675.000 40.000 0,1 2112.329,1215.962 L2173.562,1187.558 A742.500,742.500 0.000 0,0 2160.114,1160.065 Z" style="stroke-linecap:round;fill:rgb(239,59,44);" />
<path d="M2112.329,1215.962 A675.000,675.000 40.000 0,1 2119.755,1232.551 L2181.730,1205.806 A742.500,742.500 0.000 0,0 2173.562,1187.558 Z" style="stroke-linecap:round;fill:rgb(239,59,44);" />
<path d="M2119.755,1232.551 A675.000,675.000 40.000 0,1 2126.898,1249.751 L2189.587,1224.727 A742.500,742.500 0.000 0,0 2181.730,1205.806 Z" style="stroke-linecap:round;fill:rgb(239,59,44);" />
<path d="M2126.898,1249.751 A675.000,675.000 40.000 0,1 2140.671,1287.477 L2204.738,1266.225 A742.500,742.500 0.000 0,0 2189.587,1224.727 Z" style="stroke-linecap:round;fill:rgb(239,59,44);" />
<path d="M2140.671,1287.477 A675.000,675.000 40.000 0,1 2156.469,1342.923 L2222.116,1327.215 A742.500,742.500 0.000 0,0 2204.738,1266.225 Z" style="stroke-linecap:round;fill:rgb(239,59,44);" />
<path d="M 2156.47,1342.92 L 2222.12,1327.22 " style="stroke-linecap:round;fill:rgb(239,59,44);" />
<path d="M2156.469,1342.923 A675.000,675.000 40.000 0,1 2161.507,1365.709 L2227.657,1352.280 A742.500,742.500 0.000 0,0 2222.116,1327.215 Z" style="stroke-linecap:round;fill:rgb(239,59,44);" />
<path d="M 2161.51,1365.71 L 2227.66,1352.28 " style="stroke-linecap:round;fill:rgb(239,59,44);" />
<path d="M2161.507,1365.709 A675.000,675.000 40.000 0,1 2164.998,1384.232 L2231.498,1372.655 A742.500,742.500 0.000 0,0 2227.657,1352.280 Z" style="stroke-linecap:round;fill:rgb(239,59,44);" />
<path d="M 2165.00,1384.23 L 2231.50,1372.65 " style="stroke-linecap:round;fill:rgb(239,59,44);" />
<path d="M2164.998,1384.232 A675.000,675.000 40.000 0,1 2167.862,1402.096 L2234.648,1392.305 A742.500,742.500 0.000 0,0 2231.498,1372.655 Z" style="stroke-linecap:round;fill:rgb(239,59,44);" />
<path d="M 2234.65,1392.31 L 2167.86,1402.10 " style="stroke-linecap:round;fill:none;" />
<path d="M2173.650,1457.333 A675.000,675.000 40.000 0,1 2174.287,1468.984 L2241.716,1465.882 A742.500,742.500 0.000 0,0 2241.015,1453.066 Z" style="stroke-linecap:round;fill:rgb(239,59,44);" />
<path d="M2174.287,1468.984 A675.000,675.000 40.000 0,1 2170.924,1574.066 L2238.017,1581.473 A742.500,742.500 0.000 0,0 2241.716,1465.882 Z" style="stroke-linecap:round;fill:rgb(239,59,44);" />
<path d="M2170.924,1574.066 A675.000,675.000 40.000 0,1 2139.080,1717.258 L2202.988,1738.984 A742.500,742.500 0.000 0,0 2238.017,1581.473 Z" style="stroke-linecap:round;fill:rgb(239,59,44);" />
<path d="M2139.080,1717.258 A675.000,675.000 40.000 0,1 2133.543,1732.913 L2196.897,1756.204 A742.500,742.500 0.000 0,0 2202.988,1738.984 Z" style="stroke-linecap:round;fill:rgb(239,59,44);" />
<path d="M2133.543,1732.913 A675.000,675.000 40.000 0,1 2118.839,1769.562 L2180.723,1796.518 A742.500,742.500 0.000 0,0 2196.897,1756.204 Z" style="stroke-linecap:round;fill:rgb(239,59,44);" />
<path d="M 2118.84,1769.56 L 2180.72,1796.52 " style="stroke-linecap:round;fill:rgb(239,59,44);" />
<path d="M2118.839,1769.562 A675.000,675.000 40.000 0,1 2114.273,1779.810 L2175.700,1807.791 A742.500,742.500 0.000 0,0 2180.723,1796.518 Z" style="stroke-linecap:round;fill:rgb(239,59,44);" />
<path d="M 2114.27,1779.81 L 2175.70,1807.79 " style="stroke-linecap:round;fill:rgb(239,59,44);" />
<path d="M2114.273,1779.810 A675.000,675.000 40.000 0,1 2109.537,1789.982 L2170.491,1818.980 A742.500,742.500 0.000 0,0 2175.700,1807.791 Z" style="stroke-linecap:round;fill:rgb(239,59,44);" />
<path d="M 2109.54,1789.98 L 2170.49,1818.98 " style="stroke-linecap:round;fill:rgb(239,59,44);" />
<path d="M2109.537,1789.982 A675.000,675.000 40.000 0,1 2103.833,1801.680 L2164.216,1831.848 A742.500,742.500 0.000 0,0 2170.491,1818.980 Z" style="stroke-linecap:round;fill:rgb(239,59,44);" />
<path d="M 2103.83,1801.68 L 2164.22,1831.85 " style="stroke-linecap:round;fill:rgb(239,59,44);" />
<path d="M2103.833,1801.680 A675.000,675.000 40.000 0,1 2100.590,1808.086 L2160.649,1838.895 A742.500,742.500 0.000 0,0 2164.216,1831.848 Z" style="stroke-linecap:round;fill:rgb(239,59,44);" />
<path d="M 2160.65,1838.89 L 2100.59,1808.09 " style="stroke-linecap:round;fill:none;" />
<path d="M2080.098,1845.126 A675.000,675.000 40.000 0,1 2072.624,1857.389 L2129.886,1893.128 A742.500,742.500 0.000 0,0 2138.107,1879.638 Z" style="stroke-linecap:round;fill:rgb(239,59,44);" />
<path d="M 2072.62,1857.39 L 2129.89,1893.13 " style="stroke-linecap:round;fill:rgb(239,59,44);" />
<path d="M2072.624,1857.389 A675.000,675.000 40.000 0,1 2062.422,1873.238 L2118.664,1910.562 A742.500,742.500 0.000 0,0 2129.886,1893.128 Z" style="stroke-linecap:round;fill:rgb(239,59,44);" />
<path d="M 2062.42,1873.24 L 2118.66,1910.56 " style="stroke-linecap:round;fill:rgb(239,59,44);" />
<path d="M2062.422,1873.238 A675.000,675.000 40.000 0,1 2048.923,1892.821 L2103.815,1932.103 A742.500,742.500 0.000 0,0 2118.664,1910.562 Z" style="stroke-linecap:round;fill:rgb(239,59,44);" />
<path d="M 2048.92,1892.82 L 2103.82,1932.10 " style="stroke-linecap:round;fill:rgb(239,59,44);" />
<path d="M2048.923,1892.821 A675.000,675.000 40.000 0,1 2032.268,1915.109 L2085.495,1956.620 A742.500,742.500 0.000 0,0 2103.815,1932.103 Z" style="stroke-linecap:round;fill:rgb(239,59,44);" />
<path d="M2032.268,1915.109 A675.000,675.000 40.000 0,1 2027.262,1921.449 L2079.988,1963.594 A742.500,742.500 0.000 0,0 2085.495,1956.620 Z" style="stroke-linecap:round;fill:rgb(239,59,44);" />
<path d="M2027.262,1921.449 A675.000,675.000 40.000 0,1 2004.706,1948.215 L2055.177,1993.036 A742.500,742.500 0.000 0,0 2079.988,1963.594 Z" style="stroke-linecap:round;fill:rgb(239,59,44);" />
<path d="M 2004.71,1948.21 L 2055.18,1993.04 " style="stroke-linecap:round;fill:rgb(239,59,44);" />
<path d="M2004.706,1948.215 A675.000,675.000 40.000 0,1 1985.495,1968.956 L2034.044,2015.852 A742.500,742.500 0.000 0,0 2055.177,1993.036 Z" style="stroke-linecap:round;fill:rgb(239,59,44);" />
<path d="M 1985.49,1968.96 L 2034.04,2015.85 " style="stroke-linecap:round;fill:rgb(239,59,44);" />
<path d="M1985.495,1968.956 A675.000,675.000 40.000 0,1 1984.558,1969.924 L2033.014,2016.916 A742.500,742.500 0.000 0,0 2034.044,2015.852 Z" style="stroke-linecap:round;fill:rgb(239,59,44);" />
<path d="M 1984.56,1969.92 L 2033.01,2016.92 " style="stroke-linecap:round;fill:rgb(239,59,44);" />
<path d="M1984.558,1969.924 A675.000,675.000 40.000 0,1 1976.680,1977.913 L2024.349,2025.704 A742.500,742.500 0.000 0,0 2033.014,2016.916 Z" style="stroke-linecap:round;fill:rgb(239,59,44);" />
<path d="M 1976.68,1977.91 L 2024.35,2025.70 " style="stroke-linecap:round;fill:rgb(239,59,44);" />
<path d="M1976.680,1977.913 A675.000,675.000 40.000 0,1 1963.803,1990.420 L2010.183,2039.462 A742.500,742.500 0.000 0,0 2024.349,2025.704 Z" style="stroke-linecap:round;fill:rgb(239,59,44);" />
<path d="M 1963.80,1990.42 L 2010.18,2039.46 " style="stroke-linecap:round;fill:rgb(239,59,44);" />
<path d="M1963.803,1990.420 A675.000,675.000 40.000 0,1 1955.588,1998.061 L2001.146,2047.867 A742.500,742.500 0.000 0,0 2010.183,2039.462 Z" style="stroke-linecap:round;fill:rgb(239,59,44);" />
<path d="M 1955.59,1998.06 L 2001.15,2047.87 " style="stroke-linecap:round;fill:rgb(239,59,44);" />
<path d="M1955.588,1998.061 A675.000,675.000 40.000 0,1 1946.237,2006.456 L1990.861,2057.101 A742.500,742.500 0.000 0,0 2001.146,2047.867 Z" style="stroke-linecap:round;fill:rgb(239,59,44);" />
<path d="M 1946.24,2006.46 L 1990.86,2057.10 " style="stroke-linecap:round;fill:rgb(239,59,44);" />
<path d="M1946.237,2006.456 A675.000,675.000 40.000 0,1 1920.789,2027.790 L1962.868,2080.569 A742.500,742.500 0.000 0,0 1990.861,2057.101 Z" style="stroke-linecap:round;fill:rgb(239,59,44);" />
<path d="M1920.789,2027.790 A675.000,675.000 40.000 0,1 1911.958,2034.711 L1953.154,2088.182 A742.500,742.500 0.000 0,0 1962.868,2080.569 Z" style="stroke-linecap:round;fill:rgb(239,59,44);" />
<path d="M1911.958,2034.711 A675.000,675.000 40.000 0,1 1897.231,2045.741 L1936.954,2100.315 A742.500,742.500 0.000 0,0 1953.154,2088.182 Z" style="stroke-linecap:round;fill:rgb(239,59,44);" />
<path d="M1897.231,2045.741 A675.000,675.000 40.000 0,1 1891.951,2049.545 L1931.146,2104.499 A742.500,742.500 0.000 0,0 1936.954,2100.315 Z" style="stroke-linecap:round;fill:rgb(239,59,44);" />
<path d="M1891.951,2049.545 A675.000,675.000 40.000 0,1 1872.533,2062.889 L1909.787,2119.178 A742.500,742.500 0.000 0,0 1931.146,2104.499 Z" style="stroke-linecap:round;fill:rgb(239,59,44);" />
<path d="M 1909.79,2119.18 L 1872.53,2062.89 " style="stroke-linecap:round;fill:none;" />
<path d="M1787.024,2110.935 A675.000,675.000 40.000 0,1 1781.325,2113.581 L1809.458,2174.939 A742.500,742.500 0.000 0,0 1815.727,2172.029 Z" style="stroke-linecap:round;fill:rgb(239,59,44);" />
<path d="M1781.325,2113.581 A675.000,675.000 40.000 0,1 1747.262,2128.081 L1771.989,2190.890 A742.500,742.500 0.000 0,0 1809.458,2174.939 Z" style="stroke-linecap:round;fill:rgb(239,59,44);" />
<path d="M1747.262,2128.081 A675.000,675.000 40.000 0,1 1679.391,2150.726 L1697.330,2215.798 A742.500,742.500 0.000 0,0 1771.989,2190.890 Z" style="stroke-linecap:round;fill:rgb(239,59,44);" />
<path d="M1679.391,2150.726 A675.000,675.000 40.000 0,1 1616.141,2164.933 L1627.755,2231.427 A742.500,742.500 0.000 0,0 1697.330,2215.798 Z" style="stroke-linecap:round;fill:rgb(239,59,44);" />
<path d="M1616.141,2164.933 A675.000,675.000 40.000 0,1 1528.525,2174.397 L1531.377,2241.837 A742.500,742.500 0.000 0,0 1627.755,2231.427 Z" style="stroke-linecap:round;fill:rgb(239,59,44);" />
<path d="M 1528.52,2174.40 L 1531.38,2241.84 " style="stroke-linecap:round;fill:rgb(239,59,44);" />
<path d="M1528.525,2174.397 A675.000,675.000 40.000 0,1 1520.003,2174.704 L1522.004,2242.174 A742.500,742.500 0.000 0,0 1531.377,2241.837 Z" style="stroke-linecap:round;fill:rgb(239,59,44);" />
<path d="M 1520.00,2174.70 L 1522.00,2242.17 " style="stroke-linecap:round;fill:rgb(239,59,44);" />
<path d="M1520.003,2174.704 A675.000,675.000 40.000 0,1 1500.259,2175.000 L1500.285,2242.500 A742.500,742.500 0.000 0,0 1522.004,2242.174 Z" style="stroke-linecap:round;fill:rgb(239,59,44);" />
<path d="M 1500.29,2242.50 L 1500.26,2175.00 " style="stroke-linecap:round;fill:none;" />
<path d="M1368.901,2162.147 A675.000,675.000 40.000 0,1 1349.589,2158.028 L1334.548,2223.831 A742.500,742.500 0.000 0,0 1355.791,2228.361 Z" style="stroke-linecap:round;fill:rgb(239,59,44);" />
<path d="M1349.589,2158.028 A675.000,675.000 40.000 0,1 1308.353,2147.222 L1289.188,2211.944 A742.500,742.500 0.000 0,0 1334.548,2223.831 Z" style="stroke-linecap:round;fill:rgb(239,59,44);" />
<path d="M1308.353,2147.222 A675.000,675.000 40.000 0,1 1260.312,2131.011 L1236.343,2194.112 A742.500,742.500 0.000 0,0 1289.188,2211.944 Z" style="stroke-linecap:round;fill:rgb(239,59,44);" />
<path d="M 1236.34,2194.11 L 1260.31,2131.01 " style="stroke-linecap:round;fill:none;" />
<path d="M1185.069,2097.029 A675.000,675.000 40.000 0,1 1165.009,2086.009 L1131.510,2144.609 A742.500,742.500 0.000 0,0 1153.576,2156.732 Z" style="stroke-linecap:round;fill:rgb(239,59,44);" />
<path d="M1165.009,2086.009 A675.000,675.000 40.000 0,1 1157.053,2081.388 L1122.758,2139.527 A742.500,742.500 0.000 0,0 1131.510,2144.609 Z" style="stroke-linecap:round;fill:rgb(239,59,44);" />
<path d="M1157.053,2081.388 A675.000,675.000 40.000 0,1 1138.108,2069.788 L1101.918,2126.767 A742.500,742.500 0.000 0,0 1122.758,2139.527 Z" style="stroke-linecap:round;fill:rgb(239,59,44);" />
<path d="M1138.108,2069.788 A675.000,675.000 40.000 0,1 1083.880,2031.478 L1042.268,2084.626 A742.500,742.500 0.000 0,0 1101.918,2126.767 Z" style="stroke-linecap:round;fill:rgb(239,59,44);" />
<path d="M1083.880,2031.478 A675.000,675.000 40.000 0,1 1032.382,1986.784 L985.621,2035.463 A742.500,742.500 0.000 0,0 1042.268,2084.626 Z" style="stroke-linecap:round;fill:rgb(239,59,44);" />
<path d="M1032.382,1986.784 A675.000,675.000 40.000 0,1 1025.472,1980.050 L978.019,2028.055 A742.500,742.500 0.000 0,0 985.621,2035.463 Z" style="stroke-linecap:round;fill:rgb(239,59,44);" />
<path d="M1025.472,1980.050 A675.000,675.000 40.000 0,1 1008.085,1962.217 L958.893,2008.438 A742.500,742.500 0.000 0,0 978.019,2028.055 Z" style="stroke-linecap:round;fill:rgb(239,59,44);" />
<path d="M 958.89,2008.44 L 1008.08,1962.22 " style="stroke-linecap:round;fill:none;" />
<path d="M831.527,1593.644 A675.000,675.000 40.000 0,1 830.743,1587.862 L763.817,1596.649 A742.500,742.500 0.000 0,0 764.680,1603.008 Z" style="stroke-linecap:round;fill:rgb(239,59,44);" />
<path d="M830.743,1587.862 A675.000,675.000 40.000 0,1 826.285,1541.636 L758.914,1545.799 A742.500,742.500 0.000 0,0 763.817,1596.649 Z" style="stroke-linecap:round;fill:rgb(239,59,44);" />
<path d="M826.285,1541.636 A675.000,675.000 40.000 0,1 825.414,1476.367 L757.955,1474.004 A742.500,742.500 0.000 0,0 758.914,1545.799 Z" style="stroke-linecap:round;fill:rgb(239,59,44);" />
<path d="M 825.41,1476.37 L 757.96,1474.00 " style="stroke-linecap:round;fill:rgb(239,59,44);" />
<path d="M825.414,1476.367 A675.000,675.000 40.000 0,1 825.586,1471.882 L758.144,1469.071 A742.500,742.500 0.000 0,0 757.955,1474.004 Z" style="stroke-linecap:round;fill:rgb(239,59,44);" />
<path d="M 758.14,1469.07 L 825.59,1471.88 " style="stroke-linecap:round;fill:none;" />
</g>
<g id="plot7">
<g id="plot7-axis">
<path d="M1500.000,892.500 A607.500,607.500 40.000 0,1 1897.713,1040.783 L1941.903,989.758 A675.000,675.000 0.000 0,0 1500.000,825.000 Z" style="stroke-linecap:round;fill:rgb(217,217,217);" />
<path d="M1911.209,1052.828 A607.500,607.500 40.000 0,1 2101.076,1411.886 L2167.862,1402.096 A675.000,675.000 0.000 0,0 1956.899,1003.142 Z" style="stroke-linecap:round;fill:rgb(217,217,217);" />
<path d="M2103.433,1429.821 A607.500,607.500 40.000 0,1 2037.447,1783.208 L2097.164,1814.675 A675.000,675.000 0.000 0,0 2170.481,1422.024 Z" style="stroke-linecap:round;fill:rgb(217,217,217);" />
<path d="M2028.777,1799.084 A607.500,607.500 40.000 0,1 1799.845,2028.346 L1833.161,2087.051 A675.000,675.000 0.000 0,0 2087.530,1832.316 Z" style="stroke-linecap:round;fill:rgb(217,217,217);" />
<path d="M1783.981,2037.039 A607.500,607.500 40.000 0,1 1480.133,2107.175 L1477.926,2174.639 A675.000,675.000 0.000 0,0 1815.534,2096.710 Z" style="stroke-linecap:round;fill:rgb(217,217,217);" />
<path d="M1462.064,2106.314 A607.500,607.500 40.000 0,1 1232.686,2045.527 L1202.984,2106.141 A675.000,675.000 0.000 0,0 1457.849,2173.683 Z" style="stroke-linecap:round;fill:rgb(217,217,217);" />
<path d="M1216.562,2037.326 A607.500,607.500 40.000 0,1 1022.454,1875.507 L969.393,1917.230 A675.000,675.000 0.000 0,0 1185.069,2097.029 Z" style="stroke-linecap:round;fill:rgb(217,217,217);" />
<path d="M1011.485,1861.122 A607.500,607.500 40.000 0,1 922.686,1689.116 L858.540,1710.129 A675.000,675.000 0.000 0,0 957.206,1901.247 Z" style="stroke-linecap:round;fill:rgb(217,217,217);" />
<path d="M917.311,1671.843 A607.500,607.500 40.000 0,1 893.396,1467.010 L825.996,1463.345 A675.000,675.000 0.000 0,0 852.568,1690.937 Z" style="stroke-linecap:round;fill:rgb(217,217,217);" />
<path d="M894.648,1448.964 A607.500,607.500 40.000 0,1 1233.397,954.125 L1203.775,893.472 A675.000,675.000 0.000 0,0 827.386,1443.293 Z" style="stroke-linecap:round;fill:rgb(217,217,217);" />
<path d="M1249.768,946.429 A607.500,607.500 40.000 0,1 1481.912,892.769 L1479.903,825.299 A675.000,675.000 0.000 0,0 1221.965,884.922 Z" style="stroke-linecap:round;fill:rgb(217,217,217);" />
</g>
<path d="M1857.730,1008.996 A607.500,607.500 40.000 0,1 1862.934,1012.829 L1903.259,958.699 A675.000,675.000 0.000 0,0 1897.478,954.440 Z" style="stroke-linecap:round;fill:rgb(66,146,198);" />
<path d="M1862.934,1012.829 A607.500,607.500 40.000 0,1 1875.284,1022.278 L1916.982,969.198 A675.000,675.000 0.000 0,0 1903.259,958.699 Z" style="stroke-linecap:round;fill:rgb(66,146,198);" />
<path d="M1875.284,1022.278 A607.500,607.500 40.000 0,1 1897.713,1040.783 L1941.903,989.758 A675.000,675.000 0.000 0,0 1916.982,969.198 Z" style="stroke-linecap:round;fill:rgb(66,146,198);" />
<path d="M 1941.90,989.76 L 1897.71,1040.78 " style="stroke-linecap:round;fill:none;" />
<path d="M1968.671,1113.473 A607.500,607.500 40.000 0,1 1981.260,1129.264 L2034.733,1088.071 A675.000,675.000 0.000 0,0 2020.746,1070.525 Z" style="stroke-linecap:round;fill:rgb(66,146,198);" />
<path d="M1981.260,1129.264 A607.500,607.500 40.000 0,1 2027.673,1198.972 L2086.303,1165.525 A675.000,675.000 0.000 0,0 2034.733,1088.071 Z" style="stroke-linecap:round;fill:rgb(66,146,198);" />
<path d="M2027.673,1198.972 A607.500,607.500 40.000 0,1 2064.208,1274.776 L2126.898,1249.751 A675.000,675.000 0.000 0,0 2086.303,1165.525 Z" style="stroke-linecap:round;fill:rgb(66,146,198);" />
<path d="M 2126.90,1249.75 L 2064.21,1274.78 " style="stroke-linecap:round;fill:none;" />
<path d="M2105.967,1543.129 A607.500,607.500 40.000 0,1 2103.538,1569.268 L2170.598,1576.965 A675.000,675.000 0.000 0,0 2173.297,1547.921 Z" style="stroke-linecap:round;fill:rgb(66,146,198);" />
<path d="M1929.012,1930.122 A607.500,607.500 40.000 0,1 1917.423,1941.378 L1963.803,1990.420 A675.000,675.000 0.000 0,0 1976.680,1977.913 Z" style="stroke-linecap:round;fill:rgb(66,146,198);" />
<path d="M1406.271,2100.226 A607.500,607.500 40.000 0,1 1405.872,2100.163 L1395.413,2166.848 A675.000,675.000 0.000 0,0 1395.856,2166.918 Z" style="stroke-linecap:round;fill:rgb(66,146,198);" />
<path d="M995.663,1838.674 A607.500,607.500 40.000 0,1 986.619,1824.802 L929.577,1860.891 A675.000,675.000 0.000 0,0 939.625,1876.305 Z" style="stroke-linecap:round;fill:rgb(66,146,198);" />
<path d="M 986.62,1824.80 L 929.58,1860.89 " style="stroke-linecap:round;fill:rgb(66,146,198);" />
<path d="M986.619,1824.802 A607.500,607.500 40.000 0,1 981.712,1816.913 L924.125,1852.126 A675.000,675.000 0.000 0,0 929.577,1860.891 Z" style="stroke-linecap:round;fill:rgb(66,146,198);" />
<path d="M981.712,1816.913 A607.500,607.500 40.000 0,1 980.557,1815.016 L922.841,1850.018 A675.000,675.000 0.000 0,0 924.125,1852.126 Z" style="stroke-linecap:round;fill:rgb(66,146,198);" />
<path d="M980.557,1815.016 A607.500,607.500 40.000 0,1 975.087,1805.815 L916.764,1839.795 A675.000,675.000 0.000 0,0 922.841,1850.018 Z" style="stroke-linecap:round;fill:rgb(66,146,198);" />
<path d="M 916.76,1839.79 L 975.09,1805.82 " style="stroke-linecap:round;fill:none;" />
<path d="M898.374,1584.279 A607.500,607.500 40.000 0,1 897.669,1579.076 L830.743,1587.862 A675.000,675.000 0.000 0,0 831.527,1593.644 Z" style="stroke-linecap:round;fill:rgb(66,146,198);" />
<path d="M1300.016,926.360 A607.500,607.500 40.000 0,1 1306.512,924.137 L1285.013,860.152 A675.000,675.000 0.000 0,0 1277.795,862.623 Z" style="stroke-linecap:round;fill:rgb(66,146,198);" />
</g>
<g id="plot8">
<g id="plot8-axis">
</g>
<path d="M1637.025,224.841 A1282.500,1282.500 40.000 0,1 1649.735,226.271 L1657.616,159.233 A1350.000,1350.000 0.000 0,0 1644.236,157.727 Z" style="stroke-linecap:round;fill:rgb(255,244,80);" />
<path d="M2462.312,652.202 A1282.500,1282.500 40.000 0,1 2480.131,672.867 L2531.717,629.334 A1350.000,1350.000 0.000 0,0 2512.960,607.581 Z" style="stroke-linecap:round;fill:rgb(255,244,80);" />
<path d="M2774.136,1646.233 A1282.500,1282.500 40.000 0,1 2772.079,1663.163 L2839.030,1671.750 A1350.000,1350.000 0.000 0,0 2841.196,1653.930 Z" style="stroke-linecap:round;fill:rgb(255,244,80);" />
<path d="M2511.309,2288.707 A1282.500,1282.500 40.000 0,1 2501.798,2300.754 L2554.524,2342.899 A1350.000,1350.000 0.000 0,0 2564.536,2330.218 Z" style="stroke-linecap:round;fill:rgb(255,244,80);" />
<path d="M1980.491,2689.090 A1282.500,1282.500 40.000 0,1 1966.226,2694.755 L1990.764,2757.637 A1350.000,1350.000 0.000 0,0 2005.780,2751.673 Z" style="stroke-linecap:round;fill:rgb(255,244,80);" />
<path d="M1214.219,2750.254 A1282.500,1282.500 40.000 0,1 1196.790,2746.142 L1180.832,2811.729 A1350.000,1350.000 0.000 0,0 1199.177,2816.057 Z" style="stroke-linecap:round;fill:rgb(255,244,80);" />
<path d="M718.130,2516.605 A1282.500,1282.500 40.000 0,1 705.350,2506.647 L663.526,2559.628 A1350.000,1350.000 0.000 0,0 676.979,2570.110 Z" style="stroke-linecap:round;fill:rgb(255,244,80);" />
<path d="M416.196,2185.693 A1282.500,1282.500 40.000 0,1 405.837,2169.039 L348.249,2204.252 A1350.000,1350.000 0.000 0,0 359.153,2221.782 Z" style="stroke-linecap:round;fill:rgb(255,244,80);" />
<path d="M244.529,1761.914 A1282.500,1282.500 40.000 0,1 240.349,1741.010 L174.052,1753.695 A1350.000,1350.000 0.000 0,0 178.452,1775.699 Z" style="stroke-linecap:round;fill:rgb(255,244,80);" />
<path d="M356.799,918.709 A1282.500,1282.500 40.000 0,1 366.619,899.788 L306.968,868.198 A1350.000,1350.000 0.000 0,0 296.631,888.115 Z" style="stroke-linecap:round;fill:rgb(255,244,80);" />
<path d="M1063.348,294.122 A1282.500,1282.500 40.000 0,1 1070.572,291.531 L1047.970,227.927 A1350.000,1350.000 0.000 0,0 1040.366,230.655 Z" style="stroke-linecap:round;fill:rgb(255,244,80);" />
</g>
<g id="plot9">
<g id="plot9-axis">
</g>
<path d="M1629.813,291.955 A1215.000,1215.000 40.000 0,1 1641.854,293.309 L1649.735,226.271 A1282.500,1282.500 0.000 0,0 1637.025,224.841 Z" style="stroke-linecap:round;fill:rgb(255,244,80);" />
<path d="M2411.664,696.823 A1215.000,1215.000 40.000 0,1 2428.545,716.400 L2480.131,672.867 A1282.500,1282.500 0.000 0,0 2462.312,652.202 Z" style="stroke-linecap:round;fill:rgb(255,244,80);" />
<path d="M2707.076,1638.537 A1215.000,1215.000 40.000 0,1 2705.127,1654.575 L2772.079,1663.163 A1282.500,1282.500 0.000 0,0 2774.136,1646.233 Z" style="stroke-linecap:round;fill:rgb(255,244,80);" />
<path d="M2458.083,2247.196 A1215.000,1215.000 40.000 0,1 2449.072,2258.609 L2501.798,2300.754 A1282.500,1282.500 0.000 0,0 2511.309,2288.707 Z" style="stroke-linecap:round;fill:rgb(255,244,80);" />
<path d="M1955.202,2626.506 A1215.000,1215.000 40.000 0,1 1941.688,2631.873 L1966.226,2694.755 A1282.500,1282.500 0.000 0,0 1980.491,2689.090 Z" style="stroke-linecap:round;fill:rgb(255,244,80);" />
<path d="M1229.260,2684.451 A1215.000,1215.000 40.000 0,1 1212.749,2680.556 L1196.790,2746.142 A1282.500,1282.500 0.000 0,0 1214.219,2750.254 Z" style="stroke-linecap:round;fill:rgb(255,244,80);" />
<path d="M759.281,2463.099 A1215.000,1215.000 40.000 0,1 747.174,2453.665 L705.350,2506.647 A1282.500,1282.500 0.000 0,0 718.130,2516.605 Z" style="stroke-linecap:round;fill:rgb(255,244,80);" />
<path d="M473.238,2149.604 A1215.000,1215.000 40.000 0,1 463.425,2133.827 L405.837,2169.039 A1282.500,1282.500 0.000 0,0 416.196,2185.693 Z" style="stroke-linecap:round;fill:rgb(255,244,80);" />
<path d="M310.607,1748.129 A1215.000,1215.000 40.000 0,1 306.647,1728.326 L240.349,1741.010 A1282.500,1282.500 0.000 0,0 244.529,1761.914 Z" style="stroke-linecap:round;fill:rgb(255,244,80);" />
<path d="M416.968,949.304 A1215.000,1215.000 40.000 0,1 426.271,931.378 L366.619,899.788 A1282.500,1282.500 0.000 0,0 356.799,918.709 Z" style="stroke-linecap:round;fill:rgb(255,244,80);" />
<path d="M1086.330,357.589 A1215.000,1215.000 40.000 0,1 1093.173,355.135 L1070.572,291.531 A1282.500,1282.500 0.000 0,0 1063.348,294.122 Z" style="stroke-linecap:round;fill:rgb(255,244,80);" />
</g>
<g id="plot10">
<g id="plot10-axis">
</g>
<path d="M1615.389,426.182 A1080.000,1080.000 40.000 0,1 1626.093,427.386 L1633.973,360.348 A1147.500,1147.500 0.000 0,0 1622.601,359.068 Z" style="stroke-linecap:round;fill:rgb(255,244,80);" />
<path d="M2310.368,786.065 A1080.000,1080.000 40.000 0,1 2325.374,803.467 L2376.959,759.933 A1147.500,1147.500 0.000 0,0 2361.016,741.444 Z" style="stroke-linecap:round;fill:rgb(255,244,80);" />
<path d="M2572.956,1623.144 A1080.000,1080.000 40.000 0,1 2571.224,1637.400 L2638.176,1645.988 A1147.500,1147.500 0.000 0,0 2640.016,1630.840 Z" style="stroke-linecap:round;fill:rgb(255,244,80);" />
<path d="M2351.629,2164.175 A1080.000,1080.000 40.000 0,1 2343.619,2174.319 L2396.346,2216.464 A1147.500,1147.500 0.000 0,0 2404.856,2205.686 Z" style="stroke-linecap:round;fill:rgb(255,244,80);" />
<path d="M1904.624,2501.339 A1080.000,1080.000 40.000 0,1 1892.611,2506.109 L1917.150,2568.991 A1147.500,1147.500 0.000 0,0 1929.913,2563.922 Z" style="stroke-linecap:round;fill:rgb(255,244,80);" />
<path d="M1259.342,2552.846 A1080.000,1080.000 40.000 0,1 1244.665,2549.383 L1228.707,2614.969 A1147.500,1147.500 0.000 0,0 1244.301,2618.648 Z" style="stroke-linecap:round;fill:rgb(255,244,80);" />
<path d="M841.583,2356.088 A1080.000,1080.000 40.000 0,1 830.821,2347.703 L788.997,2400.684 A1147.500,1147.500 0.000 0,0 800.432,2409.594 Z" style="stroke-linecap:round;fill:rgb(255,244,80);" />
<path d="M587.323,2077.425 A1080.000,1080.000 40.000 0,1 578.600,2063.402 L521.012,2098.614 A1147.500,1147.500 0.000 0,0 530.280,2113.515 Z" style="stroke-linecap:round;fill:rgb(255,244,80);" />
<path d="M442.761,1720.559 A1080.000,1080.000 40.000 0,1 439.241,1702.956 L372.944,1715.641 A1147.500,1147.500 0.000 0,0 376.684,1734.344 Z" style="stroke-linecap:round;fill:rgb(255,244,80);" />
<path d="M537.305,1010.492 A1080.000,1080.000 40.000 0,1 545.574,994.559 L485.922,962.968 A1147.500,1147.500 0.000 0,0 477.136,979.898 Z" style="stroke-linecap:round;fill:rgb(255,244,80);" />
<path d="M1132.293,484.524 A1080.000,1080.000 40.000 0,1 1138.376,482.342 L1115.775,418.738 A1147.500,1147.500 0.000 0,0 1109.311,421.057 Z" style="stroke-linecap:round;fill:rgb(255,244,80);" />
</g>
<g id="plot11">
<g id="plot11-axis">
</g>
<path d="M1608.177,493.296 A1012.500,1012.500 40.000 0,1 1618.212,494.424 L1626.093,427.386 A1080.000,1080.000 0.000 0,0 1615.389,426.182 Z" style="stroke-linecap:round;fill:rgb(255,244,80);" />
<path d="M2259.720,830.686 A1012.500,1012.500 40.000 0,1 2273.788,847.000 L2325.374,803.467 A1080.000,1080.000 0.000 0,0 2310.368,786.065 Z" style="stroke-linecap:round;fill:rgb(255,244,80);" />
<path d="M2505.897,1615.447 A1012.500,1012.500 40.000 0,1 2504.273,1628.813 L2571.224,1637.400 A1080.000,1080.000 0.000 0,0 2572.956,1623.144 Z" style="stroke-linecap:round;fill:rgb(255,244,80);" />
<path d="M2298.402,2122.664 A1012.500,1012.500 40.000 0,1 2290.893,2132.174 L2343.619,2174.319 A1080.000,1080.000 0.000 0,0 2351.629,2164.175 Z" style="stroke-linecap:round;fill:rgb(255,244,80);" />
<path d="M1879.335,2438.755 A1012.500,1012.500 40.000 0,1 1868.073,2443.228 L1892.611,2506.109 A1080.000,1080.000 0.000 0,0 1904.624,2501.339 Z" style="stroke-linecap:round;fill:rgb(255,244,80);" />
<path d="M1274.383,2487.043 A1012.500,1012.500 40.000 0,1 1260.624,2483.796 L1244.665,2549.383 A1080.000,1080.000 0.000 0,0 1259.342,2552.846 Z" style="stroke-linecap:round;fill:rgb(255,244,80);" />
<path d="M882.734,2302.583 A1012.500,1012.500 40.000 0,1 872.645,2294.721 L830.821,2347.703 A1080.000,1080.000 0.000 0,0 841.583,2356.088 Z" style="stroke-linecap:round;fill:rgb(255,244,80);" />
<path d="M644.365,2041.336 A1012.500,1012.500 40.000 0,1 636.187,2028.189 L578.600,2063.402 A1080.000,1080.000 0.000 0,0 587.323,2077.425 Z" style="stroke-linecap:round;fill:rgb(255,244,80);" />
<path d="M508.839,1706.774 A1012.500,1012.500 40.000 0,1 505.539,1690.271 L439.241,1702.956 A1080.000,1080.000 0.000 0,0 442.761,1720.559 Z" style="stroke-linecap:round;fill:rgb(255,244,80);" />
<path d="M597.473,1041.086 A1012.500,1012.500 40.000 0,1 605.226,1026.149 L545.574,994.559 A1080.000,1080.000 0.000 0,0 537.305,1010.492 Z" style="stroke-linecap:round;fill:rgb(255,244,80);" />
<path d="M1155.275,547.991 A1012.500,1012.500 40.000 0,1 1160.978,545.945 L1138.376,482.342 A1080.000,1080.000 0.000 0,0 1132.293,484.524 Z" style="stroke-linecap:round;fill:rgb(255,244,80);" />
</g>
<g id="plot12">
<g id="plot12-axis">
</g>
<path d="M1593.754,627.523 A877.500,877.500 40.000 0,1 1602.450,628.501 L1610.331,561.463 A945.000,945.000 0.000 0,0 1600.965,560.409 Z" style="stroke-linecap:round;fill:rgb(255,244,80);" />
<path d="M2158.424,919.928 A877.500,877.500 40.000 0,1 2170.616,934.067 L2222.202,890.533 A945.000,945.000 0.000 0,0 2209.072,875.307 Z" style="stroke-linecap:round;fill:rgb(255,244,80);" />
<path d="M2371.777,1600.054 A877.500,877.500 40.000 0,1 2370.370,1611.638 L2437.321,1620.225 A945.000,945.000 0.000 0,0 2438.837,1607.751 Z" style="stroke-linecap:round;fill:rgb(255,244,80);" />
<path d="M2191.949,2039.642 A877.500,877.500 40.000 0,1 2185.441,2047.884 L2238.167,2090.029 A945.000,945.000 0.000 0,0 2245.175,2081.153 Z" style="stroke-linecap:round;fill:rgb(255,244,80);" />
<path d="M1828.757,2313.588 A877.500,877.500 40.000 0,1 1818.997,2317.464 L1843.535,2380.346 A945.000,945.000 0.000 0,0 1854.046,2376.171 Z" style="stroke-linecap:round;fill:rgb(255,244,80);" />
<path d="M1304.465,2355.437 A877.500,877.500 40.000 0,1 1292.541,2352.624 L1276.582,2418.210 A945.000,945.000 0.000 0,0 1289.424,2421.240 Z" style="stroke-linecap:round;fill:rgb(255,244,80);" />
<path d="M965.036,2195.572 A877.500,877.500 40.000 0,1 956.292,2188.758 L914.469,2241.740 A945.000,945.000 0.000 0,0 923.885,2249.077 Z" style="stroke-linecap:round;fill:rgb(255,244,80);" />
<path d="M758.450,1969.158 A877.500,877.500 40.000 0,1 751.362,1957.764 L693.775,1992.976 A945.000,945.000 0.000 0,0 701.407,2005.247 Z" style="stroke-linecap:round;fill:rgb(255,244,80);" />
<path d="M640.994,1679.204 A877.500,877.500 40.000 0,1 638.134,1664.902 L571.836,1677.587 A945.000,945.000 0.000 0,0 574.916,1692.989 Z" style="stroke-linecap:round;fill:rgb(255,244,80);" />
<path d="M717.810,1102.275 A877.500,877.500 40.000 0,1 724.529,1089.329 L664.877,1057.739 A945.000,945.000 0.000 0,0 657.642,1071.681 Z" style="stroke-linecap:round;fill:rgb(255,244,80);" />
<path d="M1201.238,674.926 A877.500,877.500 40.000 0,1 1206.181,673.153 L1183.579,609.549 A945.000,945.000 0.000 0,0 1178.256,611.458 Z" style="stroke-linecap:round;fill:rgb(255,244,80);" />
</g>
<g id="plot13">
<g id="plot13-axis">
</g>
<path d="M1586.542,694.636 A810.000,810.000 40.000 0,1 1594.569,695.540 L1602.450,628.501 A877.500,877.500 0.000 0,0 1593.754,627.523 Z" style="stroke-linecap:round;fill:rgb(255,244,80);" />
<path d="M2107.776,964.549 A810.000,810.000 40.000 0,1 2119.030,977.600 L2170.616,934.067 A877.500,877.500 0.000 0,0 2158.424,919.928 Z" style="stroke-linecap:round;fill:rgb(255,244,80);" />
<path d="M2304.717,1592.358 A810.000,810.000 40.000 0,1 2303.418,1603.050 L2370.370,1611.638 A877.500,877.500 0.000 0,0 2371.777,1600.054 Z" style="stroke-linecap:round;fill:rgb(255,244,80);" />
<path d="M2138.722,1998.131 A810.000,810.000 40.000 0,1 2132.715,2005.739 L2185.441,2047.884 A877.500,877.500 0.000 0,0 2191.949,2039.642 Z" style="stroke-linecap:round;fill:rgb(255,244,80);" />
<path d="M1803.468,2251.004 A810.000,810.000 40.000 0,1 1794.459,2254.582 L1818.997,2317.464 A877.500,877.500 0.000 0,0 1828.757,2313.588 Z" style="stroke-linecap:round;fill:rgb(255,244,80);" />
<path d="M1319.506,2289.634 A810.000,810.000 40.000 0,1 1308.499,2287.037 L1292.541,2352.624 A877.500,877.500 0.000 0,0 1304.465,2355.437 Z" style="stroke-linecap:round;fill:rgb(255,244,80);" />
<path d="M1006.187,2142.066 A810.000,810.000 40.000 0,1 998.116,2135.777 L956.292,2188.758 A877.500,877.500 0.000 0,0 965.036,2195.572 Z" style="stroke-linecap:round;fill:rgb(255,244,80);" />
<path d="M815.492,1933.069 A810.000,810.000 40.000 0,1 808.950,1922.551 L751.362,1957.764 A877.500,877.500 0.000 0,0 758.450,1969.158 Z" style="stroke-linecap:round;fill:rgb(255,244,80);" />
<path d="M707.071,1665.419 A810.000,810.000 40.000 0,1 704.431,1652.217 L638.134,1664.902 A877.500,877.500 0.000 0,0 640.994,1679.204 Z" style="stroke-linecap:round;fill:rgb(255,244,80);" />
<path d="M777.979,1132.869 A810.000,810.000 40.000 0,1 784.181,1120.919 L724.529,1089.329 A877.500,877.500 0.000 0,0 717.810,1102.275 Z" style="stroke-linecap:round;fill:rgb(255,244,80);" />
<path d="M1224.220,738.393 A810.000,810.000 40.000 0,1 1228.782,736.756 L1206.181,673.153 A877.500,877.500 0.000 0,0 1201.238,674.926 Z" style="stroke-linecap:round;fill:rgb(255,244,80);" />
</g>
<g id="plot14">
<g id="plot14-axis">
</g>
<path d="M1572.118,828.864 A675.000,675.000 40.000 0,1 1578.808,829.616 L1586.689,762.578 A742.500,742.500 0.000 0,0 1579.330,761.750 Z" style="stroke-linecap:round;fill:rgb(255,244,80);" />
<path d="M2006.480,1053.791 A675.000,675.000 40.000 0,1 2015.858,1064.667 L2067.444,1021.133 A742.500,742.500 0.000 0,0 2057.128,1009.170 Z" style="stroke-linecap:round;fill:rgb(255,244,80);" />
<path d="M2170.598,1576.965 A675.000,675.000 40.000 0,1 2169.515,1585.875 L2236.467,1594.463 A742.500,742.500 0.000 0,0 2237.658,1584.661 Z" style="stroke-linecap:round;fill:rgb(255,244,80);" />
<path d="M2032.268,1915.109 A675.000,675.000 40.000 0,1 2027.262,1921.449 L2079.988,1963.594 A742.500,742.500 0.000 0,0 2085.495,1956.620 Z" style="stroke-linecap:round;fill:rgb(255,244,80);" />
<path d="M1752.890,2125.837 A675.000,675.000 40.000 0,1 1745.382,2128.818 L1769.920,2191.700 A742.500,742.500 0.000 0,0 1778.179,2188.420 Z" style="stroke-linecap:round;fill:rgb(255,244,80);" />
<path d="M1349.589,2158.028 A675.000,675.000 40.000 0,1 1340.416,2155.864 L1324.458,2221.451 A742.500,742.500 0.000 0,0 1334.548,2223.831 Z" style="stroke-linecap:round;fill:rgb(255,244,80);" />
<path d="M1088.489,2035.055 A675.000,675.000 40.000 0,1 1081.763,2029.814 L1039.940,2082.796 A742.500,742.500 0.000 0,0 1047.338,2088.561 Z" style="stroke-linecap:round;fill:rgb(255,244,80);" />
<path d="M929.577,1860.891 A675.000,675.000 40.000 0,1 924.125,1852.126 L866.537,1887.339 A742.500,742.500 0.000 0,0 872.534,1896.980 Z" style="stroke-linecap:round;fill:rgb(255,244,80);" />
<path d="M839.226,1637.850 A675.000,675.000 40.000 0,1 837.026,1626.848 L770.728,1639.532 A742.500,742.500 0.000 0,0 773.148,1651.635 Z" style="stroke-linecap:round;fill:rgb(255,244,80);" />
<path d="M898.315,1194.058 A675.000,675.000 40.000 0,1 903.484,1184.099 L843.832,1152.509 A742.500,742.500 0.000 0,0 838.147,1163.463 Z" style="stroke-linecap:round;fill:rgb(255,244,80);" />
<path d="M1270.183,865.327 A675.000,675.000 40.000 0,1 1273.985,863.964 L1251.384,800.360 A742.500,742.500 0.000 0,0 1247.201,801.860 Z" style="stroke-linecap:round;fill:rgb(255,244,80);" />
</g>
<g id="plot15">
<g id="plot15-axis">
</g>
<path d="M1564.906,895.977 A607.500,607.500 40.000 0,1 1570.927,896.655 L1578.808,829.616 A675.000,675.000 0.000 0,0 1572.118,828.864 Z" style="stroke-linecap:round;fill:rgb(255,244,80);" />
<path d="M1955.832,1098.412 A607.500,607.500 40.000 0,1 1964.273,1108.200 L2015.858,1064.667 A675.000,675.000 0.000 0,0 2006.480,1053.791 Z" style="stroke-linecap:round;fill:rgb(255,244,80);" />
<path d="M2103.538,1569.268 A607.500,607.500 40.000 0,1 2102.564,1577.288 L2169.515,1585.875 A675.000,675.000 0.000 0,0 2170.598,1576.965 Z" style="stroke-linecap:round;fill:rgb(255,244,80);" />
<path d="M1979.041,1873.598 A607.500,607.500 40.000 0,1 1974.536,1879.304 L2027.262,1921.449 A675.000,675.000 0.000 0,0 2032.268,1915.109 Z" style="stroke-linecap:round;fill:rgb(255,244,80);" />
<path d="M1727.601,2063.253 A607.500,607.500 40.000 0,1 1720.844,2065.937 L1745.382,2128.818 A675.000,675.000 0.000 0,0 1752.890,2125.837 Z" style="stroke-linecap:round;fill:rgb(255,244,80);" />
<path d="M1364.630,2092.226 A607.500,607.500 40.000 0,1 1356.374,2090.278 L1340.416,2155.864 A675.000,675.000 0.000 0,0 1349.589,2158.028 Z" style="stroke-linecap:round;fill:rgb(255,244,80);" />
<path d="M1129.640,1981.550 A607.500,607.500 40.000 0,1 1123.587,1976.833 L1081.763,2029.814 A675.000,675.000 0.000 0,0 1088.489,2035.055 Z" style="stroke-linecap:round;fill:rgb(255,244,80);" />
<path d="M986.619,1824.802 A607.500,607.500 40.000 0,1 981.712,1816.913 L924.125,1852.126 A675.000,675.000 0.000 0,0 929.577,1860.891 Z" style="stroke-linecap:round;fill:rgb(255,244,80);" />
<path d="M905.303,1624.065 A607.500,607.500 40.000 0,1 903.323,1614.163 L837.026,1626.848 A675.000,675.000 0.000 0,0 839.226,1637.850 Z" style="stroke-linecap:round;fill:rgb(255,244,80);" />
<path d="M958.484,1224.652 A607.500,607.500 40.000 0,1 963.135,1215.689 L903.484,1184.099 A675.000,675.000 0.000 0,0 898.315,1194.058 Z" style="stroke-linecap:round;fill:rgb(255,244,80);" />
<path d="M1293.165,928.795 A607.500,607.500 40.000 0,1 1296.587,927.567 L1273.985,863.964 A675.000,675.000 0.000 0,0 1270.183,865.327 Z" style="stroke-linecap:round;fill:rgb(255,244,80);" />
</g>
<defs>
<pattern id="checker" width="10" height="10" patternTransform="rotate(45 0 0)" patternUnits="userSpaceOnUse"><line x1="0" y1="0" x2="10" y2="0" style="stroke:black;stroke-width:2" /><line x1="0" y1="0" x2="0" y2="10" style="stroke:black;stroke-width:2" /></pattern>
<pattern id="hline" width="10" height="10" patternTransform="rotate(0 0 0)" patternUnits="userSpaceOnUse"><line x1="0" y1="0" x2="10" y2="0" style="stroke:black;stroke-width:5" /></pattern>
<pattern id="vline" width="10" height="10" patternTransform="rotate(0 0 0)" patternUnits="userSpaceOnUse"><line x1="0" y1="0" x2="0" y2="10" style="stroke:black;stroke-width:5" /></pattern>
<pattern id="vline-sparse" width="10" height="10" patternTransform="rotate(0 0 0)" patternUnits="userSpaceOnUse"><line x1="0" y1="0" x2="0" y2="10" style="stroke:black;stroke-width:2" /></pattern>
<pattern id="checker" width="10" height="10" patternTransform="rotate(45 0 0)" patternUnits="userSpaceOnUse"><line x1="0" y1="0" x2="10" y2="0" style="stroke:black;stroke-width:5" /><line x1="0" y1="0" x2="0" y2="10" style="stroke:black;stroke-width:4" /></pattern>
<pattern id="hline-sparse" width="10" height="10" patternTransform="rotate(0 0 0)" patternUnits="userSpaceOnUse"><line x1="0" y1="0" x2="10" y2="0" style="stroke:black;stroke-width:2" /></pattern>
</defs>
</svg>
